%TF.GenerationSoftware,KiCad,Pcbnew,7.0.2-0*%
%TF.CreationDate,2023-07-19T22:29:02+01:00*%
%TF.ProjectId,serge-gain-cell,73657267-652d-4676-9169-6e2d63656c6c,rev?*%
%TF.SameCoordinates,Original*%
%TF.FileFunction,Copper,L1,Top*%
%TF.FilePolarity,Positive*%
%FSLAX46Y46*%
G04 Gerber Fmt 4.6, Leading zero omitted, Abs format (unit mm)*
G04 Created by KiCad (PCBNEW 7.0.2-0) date 2023-07-19 22:29:02*
%MOMM*%
%LPD*%
G01*
G04 APERTURE LIST*
%TA.AperFunction,ComponentPad*%
%ADD10C,1.600000*%
%TD*%
%TA.AperFunction,ComponentPad*%
%ADD11O,1.600000X1.600000*%
%TD*%
%TA.AperFunction,ComponentPad*%
%ADD12R,1.500000X1.500000*%
%TD*%
%TA.AperFunction,ComponentPad*%
%ADD13C,1.500000*%
%TD*%
%TA.AperFunction,ComponentPad*%
%ADD14C,2.000000*%
%TD*%
%TA.AperFunction,ComponentPad*%
%ADD15R,1.600000X1.600000*%
%TD*%
%TA.AperFunction,ComponentPad*%
%ADD16R,1.700000X1.700000*%
%TD*%
%TA.AperFunction,ComponentPad*%
%ADD17O,1.700000X1.700000*%
%TD*%
%TA.AperFunction,ViaPad*%
%ADD18C,0.762000*%
%TD*%
%TA.AperFunction,Conductor*%
%ADD19C,0.304800*%
%TD*%
%TA.AperFunction,Conductor*%
%ADD20C,0.635000*%
%TD*%
G04 APERTURE END LIST*
D10*
%TO.P,C2,2*%
%TO.N,/FB*%
X179120800Y-101266000D03*
%TO.P,C2,1*%
%TO.N,/Out*%
X179120800Y-96266000D03*
%TD*%
%TO.P,C4,1*%
%TO.N,-12V*%
X165227000Y-105791000D03*
%TO.P,C4,2*%
%TO.N,GNDREF*%
X165227000Y-110791000D03*
%TD*%
%TO.P,R7,1*%
%TO.N,GNDREF*%
X179120800Y-104140000D03*
D11*
%TO.P,R7,2*%
%TO.N,Net-(Q4-B)*%
X179120800Y-106680000D03*
%TD*%
D10*
%TO.P,R2,1*%
%TO.N,Net-(D2-A)*%
X162179000Y-98327000D03*
D11*
%TO.P,R2,2*%
%TO.N,Net-(C1-Pad1)*%
X162179000Y-95787000D03*
%TD*%
D12*
%TO.P,Q1,1,E*%
%TO.N,Net-(D2-A)*%
X167792400Y-115417600D03*
D13*
%TO.P,Q1,2,B*%
%TO.N,GNDREF*%
X170332400Y-115417600D03*
%TO.P,Q1,3,C*%
%TO.N,/In*%
X172872400Y-115417600D03*
%TD*%
D10*
%TO.P,C3,1*%
%TO.N,GNDREF*%
X176276000Y-95377000D03*
%TO.P,C3,2*%
%TO.N,+12V*%
X171276000Y-95377000D03*
%TD*%
D14*
%TO.P,RV1,1,1*%
%TO.N,-12V*%
X159074800Y-110784000D03*
%TO.P,RV1,2,2*%
%TO.N,Net-(R6-Pad2)*%
X161574800Y-113284000D03*
%TO.P,RV1,3,3*%
%TO.N,+12V*%
X159074800Y-115784000D03*
%TD*%
D10*
%TO.P,R4,1*%
%TO.N,-12V*%
X160020000Y-107442000D03*
D11*
%TO.P,R4,2*%
%TO.N,Net-(D2-A)*%
X162560000Y-107442000D03*
%TD*%
D10*
%TO.P,R5,1*%
%TO.N,/CV*%
X182626000Y-113792000D03*
D11*
%TO.P,R5,2*%
%TO.N,Net-(Q2-B)*%
X182626000Y-116332000D03*
%TD*%
%TO.P,D1,2,A*%
%TO.N,GNDREF*%
X159385000Y-95885000D03*
D15*
%TO.P,D1,1,K*%
%TO.N,Net-(D1-K)*%
X159385000Y-98425000D03*
%TD*%
D10*
%TO.P,C1,1*%
%TO.N,Net-(C1-Pad1)*%
X165227000Y-98247200D03*
%TO.P,C1,2*%
%TO.N,/In*%
X165227000Y-103247200D03*
%TD*%
D13*
%TO.P,Q2,3,C*%
%TO.N,/In*%
X167792400Y-109880400D03*
%TO.P,Q2,2,B*%
%TO.N,Net-(Q2-B)*%
X170332400Y-109880400D03*
D12*
%TO.P,Q2,1,E*%
%TO.N,Net-(D1-K)*%
X172872400Y-109880400D03*
%TD*%
D11*
%TO.P,R3,2*%
%TO.N,+12V*%
X167763400Y-95377000D03*
D10*
%TO.P,R3,1*%
%TO.N,Net-(D1-K)*%
X165223400Y-95377000D03*
%TD*%
D13*
%TO.P,Q4,3,C*%
%TO.N,/FB*%
X180035200Y-110591600D03*
%TO.P,Q4,2,B*%
%TO.N,Net-(Q4-B)*%
X177495200Y-110591600D03*
D12*
%TO.P,Q4,1,E*%
%TO.N,Net-(D1-K)*%
X174955200Y-110591600D03*
%TD*%
D10*
%TO.P,R1,1*%
%TO.N,Net-(C1-Pad1)*%
X159639000Y-103505000D03*
D11*
%TO.P,R1,2*%
%TO.N,Net-(D1-K)*%
X159639000Y-100965000D03*
%TD*%
D10*
%TO.P,R6,1*%
%TO.N,Net-(Q4-B)*%
X165201600Y-113792000D03*
D11*
%TO.P,R6,2*%
%TO.N,Net-(R6-Pad2)*%
X165201600Y-116332000D03*
%TD*%
%TO.P,U1,8,V+*%
%TO.N,+12V*%
X176022000Y-98552000D03*
%TO.P,U1,7*%
%TO.N,/Out*%
X176022000Y-101092000D03*
%TO.P,U1,6,-*%
%TO.N,/FB*%
X176022000Y-103632000D03*
%TO.P,U1,5,+*%
%TO.N,GNDREF*%
X176022000Y-106172000D03*
%TO.P,U1,4,V-*%
%TO.N,-12V*%
X168402000Y-106172000D03*
%TO.P,U1,3,+*%
%TO.N,GNDREF*%
X168402000Y-103632000D03*
%TO.P,U1,2,-*%
%TO.N,/In*%
X168402000Y-101092000D03*
D15*
%TO.P,U1,1*%
%TO.N,Net-(C1-Pad1)*%
X168402000Y-98552000D03*
%TD*%
D11*
%TO.P,D2,2,A*%
%TO.N,Net-(D2-A)*%
X162433000Y-100965000D03*
D15*
%TO.P,D2,1,K*%
%TO.N,GNDREF*%
X162433000Y-103505000D03*
%TD*%
D12*
%TO.P,Q3,1,E*%
%TO.N,Net-(D2-A)*%
X174955200Y-115417600D03*
D13*
%TO.P,Q3,2,B*%
%TO.N,Net-(Q2-B)*%
X177495200Y-115417600D03*
%TO.P,Q3,3,C*%
%TO.N,/FB*%
X180035200Y-115417600D03*
%TD*%
D16*
%TO.P,J2,1,Pin_1*%
%TO.N,/In*%
X182168800Y-99822000D03*
D17*
%TO.P,J2,2,Pin_2*%
%TO.N,/Out*%
X182168800Y-102362000D03*
%TO.P,J2,3,Pin_3*%
%TO.N,/FB*%
X182168800Y-104902000D03*
%TO.P,J2,4,Pin_4*%
%TO.N,/CV*%
X182168800Y-107442000D03*
%TD*%
%TO.P,J3,4,Pin_4*%
%TO.N,-12V*%
X156768800Y-107442000D03*
%TO.P,J3,3,Pin_3*%
%TO.N,GNDREF*%
X156768800Y-104902000D03*
%TO.P,J3,2,Pin_2*%
X156768800Y-102362000D03*
D16*
%TO.P,J3,1,Pin_1*%
%TO.N,+12V*%
X156768800Y-99822000D03*
%TD*%
D18*
%TO.N,GNDREF*%
X158597600Y-113284000D03*
%TD*%
D19*
%TO.N,/In*%
X167132000Y-103174800D02*
X167132000Y-109220000D01*
X167132000Y-109220000D02*
X172872400Y-114960400D01*
D20*
%TO.N,-12V*%
X160020000Y-107159000D02*
X161159400Y-106019600D01*
X161159400Y-106019600D02*
X164490400Y-106019600D01*
X164490400Y-106019600D02*
X164973000Y-105537000D01*
D19*
%TO.N,Net-(C1-Pad1)*%
X159639000Y-103505000D02*
X160845400Y-102298600D01*
X160845400Y-102298600D02*
X160845400Y-100317400D01*
X160845400Y-100317400D02*
X161629400Y-99533400D01*
X161629400Y-99533400D02*
X163940800Y-99533400D01*
X163940800Y-99533400D02*
X165227000Y-98247200D01*
X165227000Y-98247200D02*
X165303200Y-98171000D01*
X165303200Y-98171000D02*
X168021000Y-98171000D01*
%TO.N,/In*%
X165227000Y-103247200D02*
X165299400Y-103174800D01*
X165299400Y-103174800D02*
X167132000Y-103174800D01*
%TO.N,/CV*%
X182626000Y-113792000D02*
X182626000Y-107899200D01*
%TO.N,/FB*%
X180785200Y-102930400D02*
X180785200Y-104902000D01*
X180785200Y-104902000D02*
X180785200Y-109841600D01*
X182168800Y-104902000D02*
X180785200Y-104902000D01*
X179120800Y-101266000D02*
X180785200Y-102930400D01*
X180785200Y-109841600D02*
X180035200Y-110591600D01*
%TO.N,/Out*%
X176276000Y-101092000D02*
X178562000Y-98806000D01*
X178612800Y-98806000D02*
X178562000Y-98806000D01*
X178562000Y-98806000D02*
X178689000Y-98679000D01*
X182168800Y-102362000D02*
X178612800Y-98806000D01*
D20*
%TO.N,+12V*%
X159324906Y-94005500D02*
X166391900Y-94005500D01*
X156718000Y-99771200D02*
X156718000Y-96612406D01*
X156718000Y-96612406D02*
X159324906Y-94005500D01*
X166391900Y-94005500D02*
X167763400Y-95377000D01*
X156768800Y-99822000D02*
X155100300Y-101490500D01*
X155100300Y-101490500D02*
X155100300Y-112896300D01*
X155100300Y-112896300D02*
X157988000Y-115784000D01*
X157988000Y-115784000D02*
X159074800Y-115784000D01*
D19*
%TO.N,/Out*%
X178689000Y-98679000D02*
X179120800Y-98247200D01*
%TO.N,/FB*%
X176022000Y-103632000D02*
X176831000Y-103632000D01*
X176831000Y-103632000D02*
X179120800Y-101342200D01*
%TO.N,/Out*%
X179120800Y-98247200D02*
X179120800Y-96266000D01*
%TO.N,/In*%
X167132000Y-102362000D02*
X167132000Y-103174800D01*
X168402000Y-101092000D02*
X167132000Y-102362000D01*
D20*
%TO.N,-12V*%
X160020000Y-109838800D02*
X159074800Y-110784000D01*
X160020000Y-107442000D02*
X160020000Y-109838800D01*
%TO.N,+12V*%
X171276000Y-95377000D02*
X167763400Y-95377000D01*
D19*
%TO.N,Net-(R6-Pad2)*%
X163536000Y-116332000D02*
X165201600Y-116332000D01*
X161574800Y-114370800D02*
X163536000Y-116332000D01*
X161574800Y-113284000D02*
X161574800Y-114370800D01*
%TO.N,Net-(D1-K)*%
X172974000Y-99999800D02*
X172974000Y-109778800D01*
X169557600Y-96583400D02*
X172974000Y-99999800D01*
X165223400Y-95377000D02*
X166429800Y-96583400D01*
X163474400Y-97028000D02*
X165125400Y-95377000D01*
X160782000Y-97028000D02*
X163474400Y-97028000D01*
X166429800Y-96583400D02*
X169557600Y-96583400D01*
X159385000Y-98425000D02*
X160782000Y-97028000D01*
%TO.N,Net-(Q2-B)*%
X177495200Y-115417600D02*
X178651600Y-116574000D01*
X178651600Y-116574000D02*
X182384000Y-116574000D01*
%TO.N,Net-(D2-A)*%
X162560000Y-107442000D02*
X162023000Y-107979000D01*
X162023000Y-110715000D02*
X163372800Y-112064800D01*
X163372800Y-112064800D02*
X166065200Y-112064800D01*
X162023000Y-107979000D02*
X162023000Y-110715000D01*
X166065200Y-112064800D02*
X167792400Y-113792000D01*
X167792400Y-113792000D02*
X167792400Y-115417600D01*
%TO.N,Net-(D1-K)*%
X174244000Y-109880400D02*
X174955200Y-110591600D01*
X172872400Y-109880400D02*
X174244000Y-109880400D01*
%TO.N,Net-(Q2-B)*%
X174040800Y-113588800D02*
X170332400Y-109880400D01*
%TO.N,/FB*%
X180035200Y-110591600D02*
X180035200Y-115417600D01*
%TO.N,Net-(Q2-B)*%
X177495200Y-115417600D02*
X175666400Y-113588800D01*
X175666400Y-113588800D02*
X174040800Y-113588800D01*
%TO.N,Net-(D2-A)*%
X174955200Y-115417600D02*
X173583600Y-116789200D01*
X173583600Y-116789200D02*
X169164000Y-116789200D01*
X169164000Y-116789200D02*
X167792400Y-115417600D01*
%TO.N,Net-(D1-K)*%
X159639000Y-100965000D02*
X159639000Y-98679000D01*
D20*
%TO.N,+12V*%
X171276000Y-95377000D02*
X173863000Y-95377000D01*
X176022000Y-97536000D02*
X176022000Y-98552000D01*
X173863000Y-95377000D02*
X176022000Y-97536000D01*
%TD*%
%TA.AperFunction,Conductor*%
%TO.N,GNDREF*%
G36*
X158265494Y-100798553D02*
G01*
X158314900Y-100847958D01*
X158329752Y-100916231D01*
X158329596Y-100918191D01*
X158325501Y-100964998D01*
X158345456Y-101193084D01*
X158404717Y-101414246D01*
X158501474Y-101621744D01*
X158501476Y-101621746D01*
X158501477Y-101621749D01*
X158632802Y-101809300D01*
X158794700Y-101971198D01*
X158982251Y-102102523D01*
X159022334Y-102121214D01*
X159025345Y-102122618D01*
X159077784Y-102168791D01*
X159096936Y-102235984D01*
X159076720Y-102302865D01*
X159025345Y-102347382D01*
X158991886Y-102362984D01*
X158982251Y-102367477D01*
X158794700Y-102498802D01*
X158794696Y-102498805D01*
X158632805Y-102660696D01*
X158632802Y-102660699D01*
X158632802Y-102660700D01*
X158610327Y-102692798D01*
X158501474Y-102848255D01*
X158404717Y-103055753D01*
X158345456Y-103276915D01*
X158325501Y-103505000D01*
X158345456Y-103733084D01*
X158345457Y-103733087D01*
X158396583Y-103923892D01*
X158404717Y-103954246D01*
X158501474Y-104161744D01*
X158501476Y-104161746D01*
X158501477Y-104161749D01*
X158632802Y-104349300D01*
X158794700Y-104511198D01*
X158982251Y-104642523D01*
X158982254Y-104642524D01*
X158982255Y-104642525D01*
X159086004Y-104690903D01*
X159189757Y-104739284D01*
X159410913Y-104798543D01*
X159562971Y-104811846D01*
X159638999Y-104818498D01*
X159638999Y-104818497D01*
X159639000Y-104818498D01*
X159867087Y-104798543D01*
X160088243Y-104739284D01*
X160295749Y-104642523D01*
X160483300Y-104511198D01*
X160645198Y-104349300D01*
X160776523Y-104161749D01*
X160873284Y-103954243D01*
X160889225Y-103894747D01*
X160925590Y-103835089D01*
X160988437Y-103804560D01*
X161057813Y-103812855D01*
X161111691Y-103857340D01*
X161132965Y-103923892D01*
X161133000Y-103926843D01*
X161133000Y-104349518D01*
X161133354Y-104356126D01*
X161139400Y-104412371D01*
X161189647Y-104547089D01*
X161275811Y-104662188D01*
X161390910Y-104748352D01*
X161525628Y-104798599D01*
X161581867Y-104804645D01*
X161588482Y-104805000D01*
X162183000Y-104805000D01*
X162183000Y-103820686D01*
X162194955Y-103832641D01*
X162307852Y-103890165D01*
X162401519Y-103905000D01*
X162464481Y-103905000D01*
X162558148Y-103890165D01*
X162671045Y-103832641D01*
X162683000Y-103820686D01*
X162683000Y-104805000D01*
X163277518Y-104805000D01*
X163284132Y-104804645D01*
X163340371Y-104798599D01*
X163475089Y-104748352D01*
X163590188Y-104662188D01*
X163676352Y-104547089D01*
X163726599Y-104412371D01*
X163732646Y-104356126D01*
X163733000Y-104349518D01*
X163733000Y-103669043D01*
X163752685Y-103602004D01*
X163805489Y-103556249D01*
X163874647Y-103546305D01*
X163938203Y-103575330D01*
X163975977Y-103634108D01*
X163976775Y-103636949D01*
X163992717Y-103696446D01*
X164089474Y-103903944D01*
X164089476Y-103903946D01*
X164089477Y-103903949D01*
X164220802Y-104091500D01*
X164382700Y-104253398D01*
X164570251Y-104384723D01*
X164617418Y-104406717D01*
X164617420Y-104406718D01*
X164669859Y-104452890D01*
X164689011Y-104520084D01*
X164668795Y-104586965D01*
X164617420Y-104631481D01*
X164603026Y-104638194D01*
X164573421Y-104651999D01*
X164570251Y-104653477D01*
X164434756Y-104748352D01*
X164382696Y-104784805D01*
X164220805Y-104946696D01*
X164220802Y-104946699D01*
X164220802Y-104946700D01*
X164095001Y-105126363D01*
X164084945Y-105140724D01*
X164030368Y-105184349D01*
X163983370Y-105193600D01*
X161198027Y-105193600D01*
X161187964Y-105193191D01*
X161166577Y-105191449D01*
X161136901Y-105189033D01*
X161136900Y-105189033D01*
X161060619Y-105199425D01*
X161057289Y-105199833D01*
X160980409Y-105208195D01*
X160959226Y-105213159D01*
X160886622Y-105239832D01*
X160883458Y-105240946D01*
X160810181Y-105265637D01*
X160790545Y-105275046D01*
X160725374Y-105316702D01*
X160722522Y-105318471D01*
X160656260Y-105358339D01*
X160639115Y-105371744D01*
X160584425Y-105426433D01*
X160582022Y-105428771D01*
X160525869Y-105481963D01*
X160511466Y-105499391D01*
X159901072Y-106109785D01*
X159839749Y-106143270D01*
X159824203Y-106145631D01*
X159791913Y-106148457D01*
X159623222Y-106193658D01*
X159570753Y-106207717D01*
X159363255Y-106304474D01*
X159363250Y-106304477D01*
X159363251Y-106304477D01*
X159226711Y-106400084D01*
X159175696Y-106435805D01*
X159013805Y-106597696D01*
X159013802Y-106597699D01*
X159013802Y-106597700D01*
X158997317Y-106621243D01*
X158882474Y-106785255D01*
X158785717Y-106992753D01*
X158726456Y-107213915D01*
X158706501Y-107441999D01*
X158726456Y-107670084D01*
X158785717Y-107891246D01*
X158882474Y-108098744D01*
X158882476Y-108098746D01*
X158882477Y-108098749D01*
X159013802Y-108286300D01*
X159013804Y-108286302D01*
X159013805Y-108286303D01*
X159157681Y-108430179D01*
X159191166Y-108491502D01*
X159194000Y-108517860D01*
X159194000Y-109146829D01*
X159174315Y-109213868D01*
X159121511Y-109259623D01*
X159079729Y-109270447D01*
X158838087Y-109289465D01*
X158607206Y-109344894D01*
X158387835Y-109435761D01*
X158185385Y-109559823D01*
X158004831Y-109714031D01*
X157850623Y-109894585D01*
X157726561Y-110097035D01*
X157635694Y-110316406D01*
X157580265Y-110547287D01*
X157576652Y-110593196D01*
X157561635Y-110784000D01*
X157563758Y-110810971D01*
X157580265Y-111020712D01*
X157635694Y-111251593D01*
X157651807Y-111290492D01*
X157726560Y-111470963D01*
X157850624Y-111673416D01*
X158004831Y-111853969D01*
X158185384Y-112008176D01*
X158387837Y-112132240D01*
X158607206Y-112223105D01*
X158838089Y-112278535D01*
X159074800Y-112297165D01*
X159311511Y-112278535D01*
X159542394Y-112223105D01*
X159761763Y-112132240D01*
X159964216Y-112008176D01*
X160144769Y-111853969D01*
X160298976Y-111673416D01*
X160423040Y-111470963D01*
X160513905Y-111251594D01*
X160569335Y-111020711D01*
X160587965Y-110784000D01*
X160569335Y-110547289D01*
X160568914Y-110545536D01*
X160569023Y-110543340D01*
X160568569Y-110537560D01*
X160569315Y-110537501D01*
X160572402Y-110475757D01*
X160609214Y-110422077D01*
X160623209Y-110410190D01*
X160669822Y-110348869D01*
X160671819Y-110346314D01*
X160720078Y-110286280D01*
X160720080Y-110286275D01*
X160720321Y-110285976D01*
X160731773Y-110267514D01*
X160731936Y-110267161D01*
X160731938Y-110267159D01*
X160764267Y-110197277D01*
X160765709Y-110194271D01*
X160800073Y-110124983D01*
X160807295Y-110104470D01*
X160807375Y-110104102D01*
X160807378Y-110104098D01*
X160823935Y-110028873D01*
X160824661Y-110025773D01*
X160843266Y-109950967D01*
X160843266Y-109950963D01*
X160843356Y-109950602D01*
X160846000Y-109929021D01*
X160846000Y-109851710D01*
X160846045Y-109848353D01*
X160846769Y-109821623D01*
X160848130Y-109771367D01*
X160848129Y-109771366D01*
X160848140Y-109770990D01*
X160846000Y-109748475D01*
X160846000Y-108517860D01*
X160865685Y-108450821D01*
X160882319Y-108430179D01*
X160882318Y-108430179D01*
X161026198Y-108286300D01*
X161136526Y-108128734D01*
X161191102Y-108085112D01*
X161260601Y-108077919D01*
X161322955Y-108109441D01*
X161358369Y-108169671D01*
X161362100Y-108199860D01*
X161362100Y-110691272D01*
X161361874Y-110698759D01*
X161358459Y-110755199D01*
X161368651Y-110810813D01*
X161369778Y-110818214D01*
X161376592Y-110874327D01*
X161379754Y-110882664D01*
X161385780Y-110904278D01*
X161387389Y-110913060D01*
X161410590Y-110964610D01*
X161413453Y-110971522D01*
X161432108Y-111020711D01*
X161433505Y-111024393D01*
X161438575Y-111031739D01*
X161449597Y-111051281D01*
X161453260Y-111059419D01*
X161488117Y-111103911D01*
X161492555Y-111109943D01*
X161513613Y-111140450D01*
X161524676Y-111156477D01*
X161563645Y-111191000D01*
X161567005Y-111193977D01*
X161572458Y-111199111D01*
X161962902Y-111589556D01*
X161996387Y-111650879D01*
X161991403Y-111720571D01*
X161949531Y-111776504D01*
X161884067Y-111800921D01*
X161846274Y-111797811D01*
X161824107Y-111792489D01*
X161811512Y-111789465D01*
X161574800Y-111770835D01*
X161338087Y-111789465D01*
X161107206Y-111844894D01*
X160887835Y-111935761D01*
X160685385Y-112059823D01*
X160504831Y-112214031D01*
X160350623Y-112394585D01*
X160274990Y-112518007D01*
X160226560Y-112597037D01*
X160213253Y-112629162D01*
X160135694Y-112816406D01*
X160080265Y-113047287D01*
X160061635Y-113283999D01*
X160080265Y-113520712D01*
X160135694Y-113751593D01*
X160159158Y-113808239D01*
X160226560Y-113970963D01*
X160350624Y-114173416D01*
X160504831Y-114353969D01*
X160685384Y-114508176D01*
X160887837Y-114632240D01*
X160940579Y-114654086D01*
X160994982Y-114697927D01*
X161004006Y-114713873D01*
X161039917Y-114759711D01*
X161044355Y-114765743D01*
X161066755Y-114798194D01*
X161076476Y-114812277D01*
X161118005Y-114849068D01*
X161118805Y-114849777D01*
X161124258Y-114854911D01*
X163051895Y-116782549D01*
X163057029Y-116788002D01*
X163094523Y-116830324D01*
X163141047Y-116862437D01*
X163147080Y-116866876D01*
X163191581Y-116901740D01*
X163198093Y-116904671D01*
X163199717Y-116905402D01*
X163219260Y-116916424D01*
X163226607Y-116921495D01*
X163226608Y-116921495D01*
X163226609Y-116921496D01*
X163279482Y-116941547D01*
X163286367Y-116944400D01*
X163317666Y-116958486D01*
X163327306Y-116962825D01*
X163380359Y-117008290D01*
X163400411Y-117075220D01*
X163381094Y-117142367D01*
X163328542Y-117188410D01*
X163276413Y-117199900D01*
X160075852Y-117199900D01*
X160008813Y-117180215D01*
X159963058Y-117127411D01*
X159953114Y-117058253D01*
X159982139Y-116994697D01*
X159995315Y-116981614D01*
X160144769Y-116853969D01*
X160298976Y-116673416D01*
X160423040Y-116470963D01*
X160513905Y-116251594D01*
X160569335Y-116020711D01*
X160587965Y-115784000D01*
X160569335Y-115547289D01*
X160513905Y-115316406D01*
X160423040Y-115097037D01*
X160298976Y-114894584D01*
X160144769Y-114714031D01*
X159964216Y-114559824D01*
X159761763Y-114435760D01*
X159641790Y-114386066D01*
X159542393Y-114344894D01*
X159311512Y-114289465D01*
X159074800Y-114270835D01*
X158838087Y-114289465D01*
X158607206Y-114344894D01*
X158387835Y-114435761D01*
X158185385Y-114559823D01*
X158135860Y-114602120D01*
X158072098Y-114630689D01*
X158003012Y-114620251D01*
X157967649Y-114595509D01*
X156985937Y-113613797D01*
X155962619Y-112590478D01*
X155929134Y-112529155D01*
X155926300Y-112502797D01*
X155926300Y-108738834D01*
X155945985Y-108671795D01*
X155998789Y-108626040D01*
X156067947Y-108616096D01*
X156109315Y-108629779D01*
X156221226Y-108690342D01*
X156434165Y-108763444D01*
X156656231Y-108800500D01*
X156881369Y-108800500D01*
X157103435Y-108763444D01*
X157316374Y-108690342D01*
X157514376Y-108583189D01*
X157692040Y-108444906D01*
X157844522Y-108279268D01*
X157967660Y-108090791D01*
X158058096Y-107884616D01*
X158113364Y-107666368D01*
X158131956Y-107442000D01*
X158113364Y-107217632D01*
X158058096Y-106999384D01*
X157967660Y-106793209D01*
X157844522Y-106604732D01*
X157692040Y-106439094D01*
X157514376Y-106300811D01*
X157514375Y-106300810D01*
X157471102Y-106277392D01*
X157421512Y-106228172D01*
X157406405Y-106159955D01*
X157430576Y-106094400D01*
X157458998Y-106066763D01*
X157639878Y-105940109D01*
X157806906Y-105773081D01*
X157942400Y-105579576D01*
X158042230Y-105365492D01*
X158099436Y-105152000D01*
X157202486Y-105152000D01*
X157228293Y-105111844D01*
X157268800Y-104973889D01*
X157268800Y-104830111D01*
X157228293Y-104692156D01*
X157202486Y-104652000D01*
X158099436Y-104652000D01*
X158099435Y-104651999D01*
X158042230Y-104438507D01*
X157942399Y-104224421D01*
X157806909Y-104030921D01*
X157639881Y-103863893D01*
X157453768Y-103733575D01*
X157410144Y-103678998D01*
X157402951Y-103609499D01*
X157434473Y-103547145D01*
X157453768Y-103530425D01*
X157639881Y-103400106D01*
X157806906Y-103233081D01*
X157942400Y-103039576D01*
X158042230Y-102825492D01*
X158099436Y-102612000D01*
X157202486Y-102612000D01*
X157228293Y-102571844D01*
X157268800Y-102433889D01*
X157268800Y-102290111D01*
X157228293Y-102152156D01*
X157202486Y-102112000D01*
X158099436Y-102112000D01*
X158099435Y-102111999D01*
X158042230Y-101898507D01*
X157942399Y-101684421D01*
X157806909Y-101490921D01*
X157691072Y-101375084D01*
X157657587Y-101313761D01*
X157662571Y-101244069D01*
X157704443Y-101188136D01*
X157735412Y-101171224D01*
X157865004Y-101122889D01*
X157982061Y-101035261D01*
X158069689Y-100918204D01*
X158089887Y-100864049D01*
X158131757Y-100808118D01*
X158197221Y-100783701D01*
X158265494Y-100798553D01*
G37*
%TD.AperFunction*%
%TA.AperFunction,Conductor*%
G36*
X173536536Y-96222685D02*
G01*
X173557178Y-96239319D01*
X174946246Y-97628387D01*
X174979731Y-97689710D01*
X174974747Y-97759402D01*
X174960140Y-97787191D01*
X174884476Y-97895251D01*
X174787717Y-98102753D01*
X174728456Y-98323915D01*
X174708501Y-98551999D01*
X174728456Y-98780084D01*
X174750618Y-98862794D01*
X174783028Y-98983749D01*
X174787717Y-99001246D01*
X174884474Y-99208744D01*
X174884476Y-99208746D01*
X174884477Y-99208749D01*
X175015802Y-99396300D01*
X175177700Y-99558198D01*
X175365251Y-99689523D01*
X175405334Y-99708214D01*
X175408345Y-99709618D01*
X175460784Y-99755791D01*
X175479936Y-99822984D01*
X175459720Y-99889865D01*
X175408344Y-99934382D01*
X175365251Y-99954477D01*
X175185368Y-100080433D01*
X175177696Y-100085805D01*
X175015805Y-100247696D01*
X175015802Y-100247699D01*
X175015802Y-100247700D01*
X174978042Y-100301627D01*
X174884474Y-100435255D01*
X174787717Y-100642753D01*
X174728456Y-100863915D01*
X174708501Y-101091999D01*
X174728456Y-101320084D01*
X174753686Y-101414243D01*
X174775080Y-101494087D01*
X174787717Y-101541246D01*
X174884474Y-101748744D01*
X174884476Y-101748746D01*
X174884477Y-101748749D01*
X175015802Y-101936300D01*
X175177700Y-102098198D01*
X175365251Y-102229523D01*
X175405334Y-102248214D01*
X175408345Y-102249618D01*
X175460784Y-102295791D01*
X175479936Y-102362984D01*
X175459720Y-102429865D01*
X175408345Y-102474382D01*
X175365253Y-102494476D01*
X175365251Y-102494477D01*
X175177700Y-102625802D01*
X175177696Y-102625805D01*
X175015805Y-102787696D01*
X174884474Y-102975255D01*
X174787717Y-103182753D01*
X174728456Y-103403915D01*
X174708501Y-103631999D01*
X174728456Y-103860084D01*
X174740210Y-103903949D01*
X174786934Y-104078326D01*
X174787717Y-104081246D01*
X174884474Y-104288744D01*
X174884476Y-104288746D01*
X174884477Y-104288749D01*
X175015802Y-104476300D01*
X175177700Y-104638198D01*
X175365251Y-104769523D01*
X175418401Y-104794307D01*
X175470839Y-104840477D01*
X175489992Y-104907670D01*
X175469777Y-104974552D01*
X175418403Y-105019069D01*
X175369520Y-105041864D01*
X175183180Y-105172341D01*
X175022341Y-105333180D01*
X174891865Y-105519519D01*
X174795733Y-105725673D01*
X174743128Y-105921999D01*
X174743128Y-105922000D01*
X175706314Y-105922000D01*
X175694359Y-105933955D01*
X175636835Y-106046852D01*
X175617014Y-106172000D01*
X175636835Y-106297148D01*
X175694359Y-106410045D01*
X175706314Y-106422000D01*
X174743128Y-106422000D01*
X174795733Y-106618326D01*
X174891865Y-106824480D01*
X175022341Y-107010819D01*
X175183180Y-107171658D01*
X175369519Y-107302134D01*
X175575673Y-107398266D01*
X175771999Y-107450871D01*
X175772000Y-107450871D01*
X175772000Y-106487686D01*
X175783955Y-106499641D01*
X175896852Y-106557165D01*
X175990519Y-106572000D01*
X176053481Y-106572000D01*
X176147148Y-106557165D01*
X176260045Y-106499641D01*
X176272000Y-106487686D01*
X176272000Y-107450871D01*
X176468326Y-107398266D01*
X176674480Y-107302134D01*
X176860819Y-107171658D01*
X177021658Y-107010819D01*
X177152134Y-106824480D01*
X177248266Y-106618326D01*
X177300872Y-106422000D01*
X176337686Y-106422000D01*
X176349641Y-106410045D01*
X176407165Y-106297148D01*
X176426986Y-106172000D01*
X176407165Y-106046852D01*
X176349641Y-105933955D01*
X176337686Y-105922000D01*
X177300872Y-105922000D01*
X177300871Y-105921999D01*
X177248266Y-105725673D01*
X177152134Y-105519519D01*
X177021658Y-105333180D01*
X176860819Y-105172341D01*
X176674482Y-105041866D01*
X176625597Y-105019070D01*
X176573158Y-104972897D01*
X176554007Y-104905703D01*
X176574223Y-104838822D01*
X176625595Y-104794308D01*
X176678749Y-104769523D01*
X176866300Y-104638198D01*
X177028198Y-104476300D01*
X177159523Y-104288749D01*
X177200619Y-104200615D01*
X177242559Y-104150974D01*
X177272477Y-104130324D01*
X177309977Y-104087993D01*
X177315095Y-104082556D01*
X177637052Y-103760599D01*
X177698373Y-103727116D01*
X177768065Y-103732100D01*
X177823998Y-103773972D01*
X177848415Y-103839436D01*
X177844506Y-103880375D01*
X177835658Y-103913395D01*
X177815833Y-104140000D01*
X177835658Y-104366602D01*
X177894533Y-104586326D01*
X177990666Y-104792484D01*
X178041772Y-104865471D01*
X178041773Y-104865472D01*
X178722845Y-104184399D01*
X178735635Y-104265148D01*
X178793159Y-104378045D01*
X178882755Y-104467641D01*
X178995652Y-104525165D01*
X179076397Y-104537953D01*
X178395326Y-105219025D01*
X178395326Y-105219026D01*
X178468312Y-105270131D01*
X178517200Y-105292927D01*
X178569639Y-105339099D01*
X178588792Y-105406292D01*
X178568577Y-105473174D01*
X178517202Y-105517691D01*
X178464056Y-105542474D01*
X178464053Y-105542476D01*
X178464051Y-105542477D01*
X178282200Y-105669811D01*
X178276496Y-105673805D01*
X178114605Y-105835696D01*
X177983274Y-106023255D01*
X177886517Y-106230753D01*
X177827256Y-106451915D01*
X177807301Y-106680000D01*
X177827256Y-106908084D01*
X177886517Y-107129246D01*
X177983274Y-107336744D01*
X177983276Y-107336746D01*
X177983277Y-107336749D01*
X178114602Y-107524300D01*
X178276500Y-107686198D01*
X178464051Y-107817523D01*
X178671557Y-107914284D01*
X178892713Y-107973543D01*
X179120800Y-107993498D01*
X179348887Y-107973543D01*
X179570043Y-107914284D01*
X179777549Y-107817523D01*
X179929179Y-107711349D01*
X179995382Y-107689024D01*
X180063150Y-107706034D01*
X180110963Y-107756982D01*
X180124300Y-107812926D01*
X180124300Y-109206872D01*
X180104615Y-109273911D01*
X180051811Y-109319666D01*
X180011107Y-109330400D01*
X179815831Y-109347484D01*
X179603122Y-109404480D01*
X179444732Y-109478339D01*
X179403547Y-109497544D01*
X179263800Y-109595396D01*
X179223158Y-109623854D01*
X179067454Y-109779558D01*
X179067451Y-109779561D01*
X179067451Y-109779562D01*
X178947688Y-109950602D01*
X178941143Y-109959949D01*
X178877582Y-110096256D01*
X178831410Y-110148695D01*
X178764216Y-110167847D01*
X178697335Y-110147631D01*
X178652818Y-110096256D01*
X178626430Y-110039668D01*
X178589256Y-109959947D01*
X178462949Y-109779562D01*
X178307238Y-109623851D01*
X178126854Y-109497544D01*
X178021301Y-109448324D01*
X177927277Y-109404480D01*
X177714568Y-109347484D01*
X177495199Y-109328292D01*
X177275831Y-109347484D01*
X177063122Y-109404480D01*
X176904732Y-109478339D01*
X176863547Y-109497544D01*
X176723800Y-109595396D01*
X176683158Y-109623854D01*
X176527454Y-109779558D01*
X176527451Y-109779561D01*
X176527451Y-109779562D01*
X176455866Y-109881797D01*
X176439275Y-109905491D01*
X176384698Y-109949116D01*
X176315199Y-109956308D01*
X176252845Y-109924786D01*
X176217431Y-109864556D01*
X176213700Y-109834367D01*
X176213700Y-109796271D01*
X176213700Y-109792962D01*
X176207189Y-109732399D01*
X176207188Y-109732397D01*
X176207188Y-109732394D01*
X176156089Y-109595396D01*
X176068461Y-109478338D01*
X175951403Y-109390710D01*
X175814405Y-109339611D01*
X175757124Y-109333453D01*
X175757118Y-109333452D01*
X175753838Y-109333100D01*
X175750528Y-109333100D01*
X174659851Y-109333100D01*
X174602418Y-109316235D01*
X174602147Y-109316839D01*
X174597782Y-109314874D01*
X174592812Y-109313415D01*
X174589828Y-109311294D01*
X174580281Y-109306997D01*
X174560739Y-109295975D01*
X174553393Y-109290905D01*
X174553391Y-109290904D01*
X174500522Y-109270853D01*
X174493618Y-109267993D01*
X174462707Y-109254081D01*
X174442060Y-109244789D01*
X174433278Y-109243180D01*
X174411664Y-109237154D01*
X174403327Y-109233992D01*
X174347214Y-109227178D01*
X174339813Y-109226051D01*
X174284198Y-109215859D01*
X174262386Y-109217179D01*
X174194280Y-109201577D01*
X174145421Y-109151632D01*
X174130900Y-109093405D01*
X174130900Y-109085071D01*
X174130900Y-109085070D01*
X174130900Y-109081762D01*
X174124389Y-109021199D01*
X174124388Y-109021197D01*
X174124388Y-109021194D01*
X174073289Y-108884196D01*
X173985661Y-108767138D01*
X173868603Y-108679510D01*
X173717008Y-108622967D01*
X173718592Y-108618718D01*
X173681030Y-108603130D01*
X173641220Y-108545711D01*
X173634900Y-108506630D01*
X173634900Y-100023526D01*
X173635126Y-100016039D01*
X173637147Y-99982623D01*
X173638540Y-99959603D01*
X173638539Y-99959602D01*
X173638540Y-99959600D01*
X173628347Y-99903984D01*
X173627219Y-99896575D01*
X173626690Y-99892222D01*
X173620408Y-99840475D01*
X173617242Y-99832130D01*
X173611216Y-99810507D01*
X173609609Y-99801737D01*
X173609609Y-99801736D01*
X173586395Y-99750158D01*
X173583553Y-99743297D01*
X173563496Y-99690409D01*
X173558422Y-99683058D01*
X173547397Y-99663509D01*
X173543739Y-99655380D01*
X173508882Y-99610888D01*
X173504442Y-99604854D01*
X173472325Y-99558324D01*
X173452480Y-99540743D01*
X173429986Y-99520815D01*
X173424548Y-99515695D01*
X170735136Y-96826283D01*
X170701651Y-96764960D01*
X170706635Y-96695268D01*
X170748507Y-96639335D01*
X170813971Y-96614918D01*
X170854905Y-96618826D01*
X171047913Y-96670543D01*
X171276000Y-96690498D01*
X171504087Y-96670543D01*
X171725243Y-96611284D01*
X171932749Y-96514523D01*
X172120300Y-96383198D01*
X172264178Y-96239319D01*
X172325502Y-96205834D01*
X172351860Y-96203000D01*
X173469497Y-96203000D01*
X173536536Y-96222685D01*
G37*
%TD.AperFunction*%
%TA.AperFunction,Conductor*%
G36*
X166431954Y-106598397D02*
G01*
X166467368Y-106658626D01*
X166471100Y-106688817D01*
X166471100Y-109196272D01*
X166470874Y-109203759D01*
X166467459Y-109260199D01*
X166477651Y-109315813D01*
X166478778Y-109323214D01*
X166485592Y-109379327D01*
X166488754Y-109387664D01*
X166494780Y-109409278D01*
X166496389Y-109418060D01*
X166519590Y-109469610D01*
X166522453Y-109476522D01*
X166530426Y-109497544D01*
X166547843Y-109543468D01*
X166545837Y-109544228D01*
X166561400Y-109591420D01*
X166557242Y-109627596D01*
X166548284Y-109661027D01*
X166529092Y-109880400D01*
X166539119Y-109995007D01*
X166525352Y-110063507D01*
X166476737Y-110113690D01*
X166408708Y-110129623D01*
X166342865Y-110106247D01*
X166314016Y-110076937D01*
X166306026Y-110065526D01*
X166306025Y-110065526D01*
X165624953Y-110746598D01*
X165612165Y-110665852D01*
X165554641Y-110552955D01*
X165465045Y-110463359D01*
X165352148Y-110405835D01*
X165271400Y-110393046D01*
X165952472Y-109711974D01*
X165952471Y-109711972D01*
X165879484Y-109660866D01*
X165673326Y-109564733D01*
X165453602Y-109505858D01*
X165226999Y-109486033D01*
X165000397Y-109505858D01*
X164780672Y-109564733D01*
X164574516Y-109660865D01*
X164501527Y-109711973D01*
X164501526Y-109711973D01*
X165182600Y-110393046D01*
X165101852Y-110405835D01*
X164988955Y-110463359D01*
X164899359Y-110552955D01*
X164841835Y-110665852D01*
X164829046Y-110746600D01*
X164147973Y-110065527D01*
X164096865Y-110138516D01*
X164000733Y-110344672D01*
X163941858Y-110564397D01*
X163922033Y-110790999D01*
X163941858Y-111017602D01*
X164003541Y-111247803D01*
X164001404Y-111240688D01*
X164003929Y-111310512D01*
X163968304Y-111370617D01*
X163905839Y-111401920D01*
X163883767Y-111403900D01*
X163697916Y-111403900D01*
X163630877Y-111384215D01*
X163610235Y-111367581D01*
X162720219Y-110477565D01*
X162686734Y-110416242D01*
X162683900Y-110389884D01*
X162683900Y-108858283D01*
X162703585Y-108791244D01*
X162756389Y-108745489D01*
X162777995Y-108739795D01*
X162777608Y-108738351D01*
X162801896Y-108731842D01*
X163009243Y-108676284D01*
X163216749Y-108579523D01*
X163404300Y-108448198D01*
X163566198Y-108286300D01*
X163697523Y-108098749D01*
X163794284Y-107891243D01*
X163853543Y-107670087D01*
X163873498Y-107442000D01*
X163853543Y-107213913D01*
X163796678Y-107001691D01*
X163798341Y-106931844D01*
X163837503Y-106873982D01*
X163901731Y-106846477D01*
X163916453Y-106845600D01*
X164412727Y-106845600D01*
X164479766Y-106865285D01*
X164483850Y-106868025D01*
X164541061Y-106908084D01*
X164570251Y-106928523D01*
X164777757Y-107025284D01*
X164998913Y-107084543D01*
X165227000Y-107104498D01*
X165455087Y-107084543D01*
X165676243Y-107025284D01*
X165883749Y-106928523D01*
X166071300Y-106797198D01*
X166233198Y-106635300D01*
X166245526Y-106617692D01*
X166300100Y-106574069D01*
X166369599Y-106566875D01*
X166431954Y-106598397D01*
G37*
%TD.AperFunction*%
%TA.AperFunction,Conductor*%
G36*
X166716908Y-110550455D02*
G01*
X166745753Y-110579761D01*
X166824651Y-110692438D01*
X166980362Y-110848149D01*
X167160746Y-110974456D01*
X167360324Y-111067520D01*
X167573029Y-111124515D01*
X167792400Y-111143707D01*
X168011771Y-111124515D01*
X168013662Y-111124008D01*
X168016738Y-111124080D01*
X168022579Y-111123570D01*
X168022635Y-111124220D01*
X168083512Y-111125665D01*
X168133446Y-111156099D01*
X171120030Y-114142684D01*
X171153515Y-114204007D01*
X171148531Y-114273699D01*
X171106659Y-114329632D01*
X171041195Y-114354049D01*
X170972922Y-114339197D01*
X170961225Y-114331940D01*
X170959785Y-114330932D01*
X170761559Y-114238497D01*
X170550286Y-114181887D01*
X170332400Y-114162824D01*
X170114513Y-114181887D01*
X169903240Y-114238497D01*
X169705011Y-114330933D01*
X169642828Y-114374474D01*
X169642827Y-114374475D01*
X170287998Y-115019646D01*
X170207252Y-115032435D01*
X170094355Y-115089959D01*
X170004759Y-115179555D01*
X169947235Y-115292452D01*
X169934446Y-115373198D01*
X169289275Y-114728027D01*
X169289274Y-114728028D01*
X169276475Y-114746308D01*
X169221898Y-114789933D01*
X169152400Y-114797127D01*
X169090045Y-114765604D01*
X169054631Y-114705374D01*
X169050900Y-114675185D01*
X169050900Y-114622271D01*
X169050900Y-114622270D01*
X169050900Y-114618962D01*
X169044389Y-114558399D01*
X169044388Y-114558397D01*
X169044388Y-114558394D01*
X168993289Y-114421396D01*
X168905661Y-114304338D01*
X168788603Y-114216710D01*
X168651605Y-114165611D01*
X168594324Y-114159453D01*
X168594318Y-114159452D01*
X168591038Y-114159100D01*
X168587728Y-114159100D01*
X168577300Y-114159100D01*
X168510261Y-114139415D01*
X168464506Y-114086611D01*
X168453300Y-114035100D01*
X168453300Y-113815726D01*
X168453526Y-113808239D01*
X168456940Y-113751800D01*
X168446747Y-113696184D01*
X168445619Y-113688775D01*
X168445451Y-113687390D01*
X168438808Y-113632675D01*
X168435646Y-113624338D01*
X168429616Y-113602708D01*
X168428009Y-113593936D01*
X168404805Y-113542379D01*
X168401947Y-113535482D01*
X168381896Y-113482609D01*
X168376824Y-113475260D01*
X168365802Y-113455717D01*
X168365071Y-113454093D01*
X168362140Y-113447581D01*
X168327276Y-113403080D01*
X168322837Y-113397047D01*
X168290724Y-113350523D01*
X168248402Y-113313029D01*
X168242949Y-113307895D01*
X166549311Y-111614258D01*
X166544177Y-111608805D01*
X166543468Y-111608005D01*
X166506677Y-111566476D01*
X166496346Y-111559345D01*
X166460143Y-111534355D01*
X166454112Y-111529918D01*
X166431099Y-111511889D01*
X166390466Y-111455050D01*
X166387013Y-111385265D01*
X166395189Y-111361872D01*
X166453266Y-111237326D01*
X166512141Y-111017602D01*
X166531966Y-110791000D01*
X166520654Y-110661696D01*
X166534421Y-110593196D01*
X166583036Y-110543013D01*
X166651065Y-110527080D01*
X166716908Y-110550455D01*
G37*
%TD.AperFunction*%
%TA.AperFunction,Conductor*%
G36*
X183843339Y-93690585D02*
G01*
X183889094Y-93743389D01*
X183900300Y-93794900D01*
X183900300Y-112937311D01*
X183880615Y-113004350D01*
X183827811Y-113050105D01*
X183758653Y-113060049D01*
X183695097Y-113031024D01*
X183674726Y-113008435D01*
X183632198Y-112947700D01*
X183470299Y-112785801D01*
X183339776Y-112694406D01*
X183296151Y-112639829D01*
X183286900Y-112592832D01*
X183286900Y-108251320D01*
X183306585Y-108184281D01*
X183307092Y-108183498D01*
X183367659Y-108090793D01*
X183422906Y-107964841D01*
X183458096Y-107884616D01*
X183513364Y-107666368D01*
X183531956Y-107442000D01*
X183513364Y-107217632D01*
X183458096Y-106999384D01*
X183367660Y-106793209D01*
X183244522Y-106604732D01*
X183092040Y-106439094D01*
X182914376Y-106300811D01*
X182914375Y-106300810D01*
X182877867Y-106281053D01*
X182828277Y-106231833D01*
X182813170Y-106163616D01*
X182837341Y-106098061D01*
X182877866Y-106062946D01*
X182914376Y-106043189D01*
X183092040Y-105904906D01*
X183244522Y-105739268D01*
X183367660Y-105550791D01*
X183458096Y-105344616D01*
X183513364Y-105126368D01*
X183531956Y-104902000D01*
X183513364Y-104677632D01*
X183458096Y-104459384D01*
X183367660Y-104253209D01*
X183244522Y-104064732D01*
X183092040Y-103899094D01*
X182914376Y-103760811D01*
X182877867Y-103741053D01*
X182828278Y-103691836D01*
X182813170Y-103623619D01*
X182837340Y-103558063D01*
X182877867Y-103522946D01*
X182914376Y-103503189D01*
X183092040Y-103364906D01*
X183244522Y-103199268D01*
X183367660Y-103010791D01*
X183458096Y-102804616D01*
X183513364Y-102586368D01*
X183531956Y-102362000D01*
X183513364Y-102137632D01*
X183458096Y-101919384D01*
X183367660Y-101713209D01*
X183244522Y-101524732D01*
X183244521Y-101524731D01*
X183244518Y-101524726D01*
X183099310Y-101366990D01*
X183068387Y-101304336D01*
X183076247Y-101234910D01*
X183120394Y-101180754D01*
X183147196Y-101166829D01*
X183265004Y-101122889D01*
X183382061Y-101035261D01*
X183469689Y-100918204D01*
X183507527Y-100816757D01*
X183520788Y-100781205D01*
X183520788Y-100781203D01*
X183520789Y-100781201D01*
X183527300Y-100720638D01*
X183527300Y-98923362D01*
X183520789Y-98862799D01*
X183520788Y-98862797D01*
X183520788Y-98862794D01*
X183469689Y-98725796D01*
X183382061Y-98608738D01*
X183265003Y-98521110D01*
X183128005Y-98470011D01*
X183070724Y-98463853D01*
X183070718Y-98463852D01*
X183067438Y-98463500D01*
X181270162Y-98463500D01*
X181266882Y-98463852D01*
X181266875Y-98463853D01*
X181209594Y-98470011D01*
X181072596Y-98521110D01*
X180955538Y-98608738D01*
X180867910Y-98725796D01*
X180816811Y-98862794D01*
X180810653Y-98920075D01*
X180810300Y-98923362D01*
X180810300Y-98926671D01*
X180810300Y-99769484D01*
X180790615Y-99836523D01*
X180737811Y-99882278D01*
X180668653Y-99892222D01*
X180605097Y-99863197D01*
X180598619Y-99857165D01*
X179612056Y-98870603D01*
X179578571Y-98809280D01*
X179583555Y-98739589D01*
X179617515Y-98690102D01*
X179619124Y-98688677D01*
X179651254Y-98642127D01*
X179655663Y-98636135D01*
X179690539Y-98591620D01*
X179694201Y-98583480D01*
X179705221Y-98563941D01*
X179710296Y-98556591D01*
X179730347Y-98503717D01*
X179733209Y-98496810D01*
X179748043Y-98463853D01*
X179756409Y-98445264D01*
X179758017Y-98436482D01*
X179764045Y-98414862D01*
X179767208Y-98406525D01*
X179774021Y-98350406D01*
X179775148Y-98343005D01*
X179785339Y-98287399D01*
X179781926Y-98230976D01*
X179781700Y-98223489D01*
X179781700Y-97465166D01*
X179801385Y-97398127D01*
X179834573Y-97363593D01*
X179965100Y-97272198D01*
X180126998Y-97110300D01*
X180258323Y-96922749D01*
X180355084Y-96715243D01*
X180414343Y-96494087D01*
X180434298Y-96266000D01*
X180414343Y-96037913D01*
X180355084Y-95816757D01*
X180258323Y-95609251D01*
X180126998Y-95421700D01*
X179965100Y-95259802D01*
X179777549Y-95128477D01*
X179777546Y-95128476D01*
X179777544Y-95128474D01*
X179570046Y-95031717D01*
X179570043Y-95031716D01*
X179365842Y-94977000D01*
X179348884Y-94972456D01*
X179120799Y-94952501D01*
X178892715Y-94972456D01*
X178671553Y-95031717D01*
X178464055Y-95128474D01*
X178276496Y-95259805D01*
X178114605Y-95421696D01*
X177983274Y-95609255D01*
X177886517Y-95816753D01*
X177827256Y-96037915D01*
X177807301Y-96265999D01*
X177827256Y-96494084D01*
X177827257Y-96494087D01*
X177877029Y-96679839D01*
X177886517Y-96715246D01*
X177983274Y-96922744D01*
X177983276Y-96922746D01*
X177983277Y-96922749D01*
X178114602Y-97110300D01*
X178276500Y-97272198D01*
X178407025Y-97363592D01*
X178450648Y-97418168D01*
X178459900Y-97465166D01*
X178459900Y-97922083D01*
X178440215Y-97989122D01*
X178423581Y-98009764D01*
X178191352Y-98241993D01*
X178145105Y-98288239D01*
X178127871Y-98302603D01*
X178120523Y-98307675D01*
X178083021Y-98350005D01*
X178077888Y-98355457D01*
X177519161Y-98914184D01*
X177457838Y-98947669D01*
X177388146Y-98942685D01*
X177332213Y-98900813D01*
X177307796Y-98835349D01*
X177311706Y-98794407D01*
X177312093Y-98792961D01*
X177315543Y-98780087D01*
X177335498Y-98552000D01*
X177315543Y-98323913D01*
X177256284Y-98102757D01*
X177159523Y-97895251D01*
X177028198Y-97707700D01*
X176885039Y-97564541D01*
X176851554Y-97503218D01*
X176849855Y-97493600D01*
X176848165Y-97481198D01*
X176842167Y-97437174D01*
X176841763Y-97433869D01*
X176838395Y-97402900D01*
X176833446Y-97357387D01*
X176833445Y-97357386D01*
X176833404Y-97357001D01*
X176828444Y-97335838D01*
X176801770Y-97263236D01*
X176800654Y-97260065D01*
X176775959Y-97186772D01*
X176766558Y-97167153D01*
X176724910Y-97101996D01*
X176723138Y-97099140D01*
X176683451Y-97033178D01*
X176683448Y-97033175D01*
X176683254Y-97032852D01*
X176669860Y-97015719D01*
X176615168Y-96961027D01*
X176612826Y-96958621D01*
X176559634Y-96902467D01*
X176542204Y-96888063D01*
X176507525Y-96853384D01*
X176474040Y-96792061D01*
X176479024Y-96722369D01*
X176520896Y-96666436D01*
X176563112Y-96645928D01*
X176722326Y-96603266D01*
X176928480Y-96507134D01*
X177001472Y-96456025D01*
X176320400Y-95774953D01*
X176401148Y-95762165D01*
X176514045Y-95704641D01*
X176603641Y-95615045D01*
X176661165Y-95502148D01*
X176673953Y-95421400D01*
X177355025Y-96102472D01*
X177406134Y-96029480D01*
X177502266Y-95823326D01*
X177561141Y-95603602D01*
X177580966Y-95376999D01*
X177561141Y-95150397D01*
X177502266Y-94930673D01*
X177406133Y-94724515D01*
X177355025Y-94651526D01*
X176673953Y-95332598D01*
X176661165Y-95251852D01*
X176603641Y-95138955D01*
X176514045Y-95049359D01*
X176401148Y-94991835D01*
X176320400Y-94979046D01*
X177001472Y-94297974D01*
X177001471Y-94297972D01*
X176928484Y-94246866D01*
X176722326Y-94150733D01*
X176502602Y-94091858D01*
X176276000Y-94072033D01*
X176049397Y-94091858D01*
X175829672Y-94150733D01*
X175623516Y-94246865D01*
X175550527Y-94297973D01*
X175550526Y-94297973D01*
X176231600Y-94979046D01*
X176150852Y-94991835D01*
X176037955Y-95049359D01*
X175948359Y-95138955D01*
X175890835Y-95251852D01*
X175878046Y-95332599D01*
X175196973Y-94651527D01*
X175145865Y-94724516D01*
X175049734Y-94930671D01*
X175007071Y-95089888D01*
X174970705Y-95149548D01*
X174907858Y-95180076D01*
X174838482Y-95171781D01*
X174799615Y-95145474D01*
X174474381Y-94820240D01*
X174467553Y-94812834D01*
X174434388Y-94773789D01*
X174373103Y-94727201D01*
X174370458Y-94725133D01*
X174310191Y-94676689D01*
X174291703Y-94665221D01*
X174221482Y-94632733D01*
X174218455Y-94631282D01*
X174149185Y-94596927D01*
X174128662Y-94589702D01*
X174053128Y-94573075D01*
X174049861Y-94572309D01*
X173974809Y-94553645D01*
X173953205Y-94551000D01*
X173952833Y-94551000D01*
X173875897Y-94551000D01*
X173872540Y-94550955D01*
X173795189Y-94548859D01*
X173772675Y-94551000D01*
X172351860Y-94551000D01*
X172284821Y-94531315D01*
X172264179Y-94514681D01*
X172120303Y-94370805D01*
X172120300Y-94370802D01*
X171932749Y-94239477D01*
X171932746Y-94239476D01*
X171932744Y-94239474D01*
X171725246Y-94142717D01*
X171725243Y-94142716D01*
X171535440Y-94091858D01*
X171504084Y-94083456D01*
X171275999Y-94063501D01*
X171047915Y-94083456D01*
X170826753Y-94142717D01*
X170619255Y-94239474D01*
X170431696Y-94370805D01*
X170287821Y-94514681D01*
X170226498Y-94548166D01*
X170200140Y-94551000D01*
X168839260Y-94551000D01*
X168772221Y-94531315D01*
X168751579Y-94514681D01*
X168607703Y-94370805D01*
X168607700Y-94370802D01*
X168420149Y-94239477D01*
X168420146Y-94239476D01*
X168420144Y-94239474D01*
X168212646Y-94142717D01*
X168212643Y-94142716D01*
X168022840Y-94091858D01*
X167991484Y-94083456D01*
X167763398Y-94063501D01*
X167687336Y-94070155D01*
X167618836Y-94056388D01*
X167588849Y-94034308D01*
X167437122Y-93882581D01*
X167403637Y-93821258D01*
X167408621Y-93751566D01*
X167450493Y-93695633D01*
X167515957Y-93671216D01*
X167524803Y-93670900D01*
X183776300Y-93670900D01*
X183843339Y-93690585D01*
G37*
%TD.AperFunction*%
%TA.AperFunction,Conductor*%
G36*
X169915703Y-97876602D02*
G01*
X169922181Y-97882634D01*
X172276781Y-100237234D01*
X172310266Y-100298557D01*
X172313100Y-100324915D01*
X172313100Y-108497900D01*
X172293415Y-108564939D01*
X172240611Y-108610694D01*
X172189100Y-108621900D01*
X172073762Y-108621900D01*
X172070482Y-108622252D01*
X172070475Y-108622253D01*
X172013194Y-108628411D01*
X171876196Y-108679510D01*
X171759138Y-108767138D01*
X171671510Y-108884196D01*
X171620411Y-109021194D01*
X171614253Y-109078475D01*
X171613900Y-109081762D01*
X171613900Y-109085071D01*
X171613900Y-109123167D01*
X171594215Y-109190206D01*
X171541411Y-109235961D01*
X171472253Y-109245905D01*
X171408697Y-109216880D01*
X171388325Y-109194291D01*
X171358455Y-109151632D01*
X171300149Y-109068362D01*
X171144438Y-108912651D01*
X170964054Y-108786344D01*
X170855110Y-108735543D01*
X170764477Y-108693280D01*
X170551768Y-108636284D01*
X170332400Y-108617092D01*
X170113031Y-108636284D01*
X169900322Y-108693280D01*
X169703001Y-108785293D01*
X169700747Y-108786344D01*
X169598309Y-108858072D01*
X169520358Y-108912654D01*
X169364654Y-109068358D01*
X169364651Y-109068361D01*
X169364651Y-109068362D01*
X169241116Y-109244789D01*
X169238343Y-109248749D01*
X169174782Y-109385056D01*
X169128610Y-109437495D01*
X169061416Y-109456647D01*
X168994535Y-109436431D01*
X168950018Y-109385056D01*
X168928826Y-109339611D01*
X168886456Y-109248747D01*
X168760149Y-109068362D01*
X168604438Y-108912651D01*
X168424054Y-108786344D01*
X168315110Y-108735543D01*
X168224477Y-108693280D01*
X168011768Y-108636284D01*
X167906092Y-108627038D01*
X167841023Y-108601585D01*
X167800045Y-108544994D01*
X167792900Y-108503510D01*
X167792900Y-107525050D01*
X167812585Y-107458011D01*
X167865389Y-107412256D01*
X167934547Y-107402312D01*
X167948994Y-107405275D01*
X167952753Y-107406282D01*
X167952757Y-107406284D01*
X168173913Y-107465543D01*
X168402000Y-107485498D01*
X168630087Y-107465543D01*
X168851243Y-107406284D01*
X169058749Y-107309523D01*
X169246300Y-107178198D01*
X169408198Y-107016300D01*
X169539523Y-106828749D01*
X169636284Y-106621243D01*
X169695543Y-106400087D01*
X169715498Y-106172000D01*
X169714764Y-106163616D01*
X169705957Y-106062943D01*
X169695543Y-105943913D01*
X169636284Y-105722757D01*
X169569518Y-105579576D01*
X169539525Y-105515255D01*
X169539524Y-105515254D01*
X169539523Y-105515251D01*
X169408198Y-105327700D01*
X169246300Y-105165802D01*
X169058749Y-105034477D01*
X169058748Y-105034476D01*
X169058746Y-105034475D01*
X169005598Y-105009692D01*
X168953159Y-104963519D01*
X168934007Y-104896325D01*
X168954223Y-104829444D01*
X169005600Y-104784927D01*
X169054481Y-104762133D01*
X169240819Y-104631658D01*
X169401658Y-104470819D01*
X169532134Y-104284480D01*
X169628266Y-104078326D01*
X169680872Y-103882000D01*
X168717686Y-103882000D01*
X168729641Y-103870045D01*
X168787165Y-103757148D01*
X168806986Y-103632000D01*
X168787165Y-103506852D01*
X168729641Y-103393955D01*
X168717686Y-103382000D01*
X169680872Y-103382000D01*
X169680871Y-103381999D01*
X169628266Y-103185673D01*
X169532134Y-102979519D01*
X169401658Y-102793180D01*
X169240819Y-102632341D01*
X169054482Y-102501866D01*
X169005597Y-102479070D01*
X168953158Y-102432897D01*
X168934007Y-102365703D01*
X168954223Y-102298822D01*
X169005595Y-102254308D01*
X169058749Y-102229523D01*
X169246300Y-102098198D01*
X169408198Y-101936300D01*
X169539523Y-101748749D01*
X169636284Y-101541243D01*
X169695543Y-101320087D01*
X169715498Y-101092000D01*
X169695543Y-100863913D01*
X169636284Y-100642757D01*
X169539523Y-100435251D01*
X169408198Y-100247700D01*
X169246300Y-100085802D01*
X169238630Y-100080431D01*
X169195008Y-100025858D01*
X169187814Y-99956360D01*
X169219336Y-99894005D01*
X169279566Y-99858590D01*
X169296498Y-99855569D01*
X169311201Y-99853989D01*
X169311203Y-99853988D01*
X169311205Y-99853988D01*
X169398046Y-99821597D01*
X169448204Y-99802889D01*
X169565261Y-99715261D01*
X169652889Y-99598204D01*
X169683664Y-99515695D01*
X169703988Y-99461205D01*
X169703988Y-99461203D01*
X169703989Y-99461201D01*
X169710500Y-99400638D01*
X169710500Y-97970314D01*
X169730185Y-97903276D01*
X169782989Y-97857521D01*
X169852147Y-97847577D01*
X169915703Y-97876602D01*
G37*
%TD.AperFunction*%
%TA.AperFunction,Conductor*%
G36*
X157018800Y-104466498D02*
G01*
X156911115Y-104417320D01*
X156804563Y-104402000D01*
X156733037Y-104402000D01*
X156626485Y-104417320D01*
X156518800Y-104466498D01*
X156518800Y-102797501D01*
X156626485Y-102846680D01*
X156733037Y-102862000D01*
X156804563Y-102862000D01*
X156911115Y-102846680D01*
X157018800Y-102797501D01*
X157018800Y-104466498D01*
G37*
%TD.AperFunction*%
%TD*%
M02*
