%TF.GenerationSoftware,KiCad,Pcbnew,7.0.2-0*%
%TF.CreationDate,2023-07-19T22:29:02+01:00*%
%TF.ProjectId,serge-gain-cell,73657267-652d-4676-9169-6e2d63656c6c,rev?*%
%TF.SameCoordinates,Original*%
%TF.FileFunction,Copper,L2,Bot*%
%TF.FilePolarity,Positive*%
%FSLAX46Y46*%
G04 Gerber Fmt 4.6, Leading zero omitted, Abs format (unit mm)*
G04 Created by KiCad (PCBNEW 7.0.2-0) date 2023-07-19 22:29:02*
%MOMM*%
%LPD*%
G01*
G04 APERTURE LIST*
%TA.AperFunction,ComponentPad*%
%ADD10C,1.600000*%
%TD*%
%TA.AperFunction,ComponentPad*%
%ADD11O,1.600000X1.600000*%
%TD*%
%TA.AperFunction,ComponentPad*%
%ADD12R,1.500000X1.500000*%
%TD*%
%TA.AperFunction,ComponentPad*%
%ADD13C,1.500000*%
%TD*%
%TA.AperFunction,ComponentPad*%
%ADD14C,2.000000*%
%TD*%
%TA.AperFunction,ComponentPad*%
%ADD15R,1.600000X1.600000*%
%TD*%
%TA.AperFunction,ComponentPad*%
%ADD16R,1.700000X1.700000*%
%TD*%
%TA.AperFunction,ComponentPad*%
%ADD17O,1.700000X1.700000*%
%TD*%
%TA.AperFunction,ViaPad*%
%ADD18C,0.762000*%
%TD*%
%TA.AperFunction,Conductor*%
%ADD19C,0.304800*%
%TD*%
%TA.AperFunction,Conductor*%
%ADD20C,0.635000*%
%TD*%
G04 APERTURE END LIST*
D10*
%TO.P,C2,2*%
%TO.N,/FB*%
X179120800Y-101266000D03*
%TO.P,C2,1*%
%TO.N,/Out*%
X179120800Y-96266000D03*
%TD*%
%TO.P,C4,1*%
%TO.N,-12V*%
X165227000Y-105791000D03*
%TO.P,C4,2*%
%TO.N,GNDREF*%
X165227000Y-110791000D03*
%TD*%
%TO.P,R7,1*%
%TO.N,GNDREF*%
X179120800Y-104140000D03*
D11*
%TO.P,R7,2*%
%TO.N,Net-(Q4-B)*%
X179120800Y-106680000D03*
%TD*%
D10*
%TO.P,R2,1*%
%TO.N,Net-(D2-A)*%
X162179000Y-98327000D03*
D11*
%TO.P,R2,2*%
%TO.N,Net-(C1-Pad1)*%
X162179000Y-95787000D03*
%TD*%
D12*
%TO.P,Q1,1,E*%
%TO.N,Net-(D2-A)*%
X167792400Y-115417600D03*
D13*
%TO.P,Q1,2,B*%
%TO.N,GNDREF*%
X170332400Y-115417600D03*
%TO.P,Q1,3,C*%
%TO.N,/In*%
X172872400Y-115417600D03*
%TD*%
D10*
%TO.P,C3,1*%
%TO.N,GNDREF*%
X176276000Y-95377000D03*
%TO.P,C3,2*%
%TO.N,+12V*%
X171276000Y-95377000D03*
%TD*%
D14*
%TO.P,RV1,1,1*%
%TO.N,-12V*%
X159074800Y-110784000D03*
%TO.P,RV1,2,2*%
%TO.N,Net-(R6-Pad2)*%
X161574800Y-113284000D03*
%TO.P,RV1,3,3*%
%TO.N,+12V*%
X159074800Y-115784000D03*
%TD*%
D10*
%TO.P,R4,1*%
%TO.N,-12V*%
X160020000Y-107442000D03*
D11*
%TO.P,R4,2*%
%TO.N,Net-(D2-A)*%
X162560000Y-107442000D03*
%TD*%
D10*
%TO.P,R5,1*%
%TO.N,/CV*%
X182626000Y-113792000D03*
D11*
%TO.P,R5,2*%
%TO.N,Net-(Q2-B)*%
X182626000Y-116332000D03*
%TD*%
%TO.P,D1,2,A*%
%TO.N,GNDREF*%
X159385000Y-95885000D03*
D15*
%TO.P,D1,1,K*%
%TO.N,Net-(D1-K)*%
X159385000Y-98425000D03*
%TD*%
D10*
%TO.P,C1,1*%
%TO.N,Net-(C1-Pad1)*%
X165227000Y-98247200D03*
%TO.P,C1,2*%
%TO.N,/In*%
X165227000Y-103247200D03*
%TD*%
D13*
%TO.P,Q2,3,C*%
%TO.N,/In*%
X167792400Y-109880400D03*
%TO.P,Q2,2,B*%
%TO.N,Net-(Q2-B)*%
X170332400Y-109880400D03*
D12*
%TO.P,Q2,1,E*%
%TO.N,Net-(D1-K)*%
X172872400Y-109880400D03*
%TD*%
D11*
%TO.P,R3,2*%
%TO.N,+12V*%
X167763400Y-95377000D03*
D10*
%TO.P,R3,1*%
%TO.N,Net-(D1-K)*%
X165223400Y-95377000D03*
%TD*%
D13*
%TO.P,Q4,3,C*%
%TO.N,/FB*%
X180035200Y-110591600D03*
%TO.P,Q4,2,B*%
%TO.N,Net-(Q4-B)*%
X177495200Y-110591600D03*
D12*
%TO.P,Q4,1,E*%
%TO.N,Net-(D1-K)*%
X174955200Y-110591600D03*
%TD*%
D10*
%TO.P,R1,1*%
%TO.N,Net-(C1-Pad1)*%
X159639000Y-103505000D03*
D11*
%TO.P,R1,2*%
%TO.N,Net-(D1-K)*%
X159639000Y-100965000D03*
%TD*%
D10*
%TO.P,R6,1*%
%TO.N,Net-(Q4-B)*%
X165201600Y-113792000D03*
D11*
%TO.P,R6,2*%
%TO.N,Net-(R6-Pad2)*%
X165201600Y-116332000D03*
%TD*%
%TO.P,U1,8,V+*%
%TO.N,+12V*%
X176022000Y-98552000D03*
%TO.P,U1,7*%
%TO.N,/Out*%
X176022000Y-101092000D03*
%TO.P,U1,6,-*%
%TO.N,/FB*%
X176022000Y-103632000D03*
%TO.P,U1,5,+*%
%TO.N,GNDREF*%
X176022000Y-106172000D03*
%TO.P,U1,4,V-*%
%TO.N,-12V*%
X168402000Y-106172000D03*
%TO.P,U1,3,+*%
%TO.N,GNDREF*%
X168402000Y-103632000D03*
%TO.P,U1,2,-*%
%TO.N,/In*%
X168402000Y-101092000D03*
D15*
%TO.P,U1,1*%
%TO.N,Net-(C1-Pad1)*%
X168402000Y-98552000D03*
%TD*%
D11*
%TO.P,D2,2,A*%
%TO.N,Net-(D2-A)*%
X162433000Y-100965000D03*
D15*
%TO.P,D2,1,K*%
%TO.N,GNDREF*%
X162433000Y-103505000D03*
%TD*%
D12*
%TO.P,Q3,1,E*%
%TO.N,Net-(D2-A)*%
X174955200Y-115417600D03*
D13*
%TO.P,Q3,2,B*%
%TO.N,Net-(Q2-B)*%
X177495200Y-115417600D03*
%TO.P,Q3,3,C*%
%TO.N,/FB*%
X180035200Y-115417600D03*
%TD*%
D16*
%TO.P,J2,1,Pin_1*%
%TO.N,/In*%
X182168800Y-99822000D03*
D17*
%TO.P,J2,2,Pin_2*%
%TO.N,/Out*%
X182168800Y-102362000D03*
%TO.P,J2,3,Pin_3*%
%TO.N,/FB*%
X182168800Y-104902000D03*
%TO.P,J2,4,Pin_4*%
%TO.N,/CV*%
X182168800Y-107442000D03*
%TD*%
%TO.P,J3,4,Pin_4*%
%TO.N,-12V*%
X156768800Y-107442000D03*
%TO.P,J3,3,Pin_3*%
%TO.N,GNDREF*%
X156768800Y-104902000D03*
%TO.P,J3,2,Pin_2*%
X156768800Y-102362000D03*
D16*
%TO.P,J3,1,Pin_1*%
%TO.N,+12V*%
X156768800Y-99822000D03*
%TD*%
D18*
%TO.N,GNDREF*%
X158597600Y-113284000D03*
%TD*%
D19*
%TO.N,Net-(D2-A)*%
X162433000Y-100965000D02*
X162433000Y-101320600D01*
X162433000Y-101320600D02*
X163779200Y-102666800D01*
X163779200Y-102666800D02*
X163779200Y-106222800D01*
X163779200Y-106222800D02*
X162560000Y-107442000D01*
%TO.N,/In*%
X182168800Y-99822000D02*
X182168800Y-96824800D01*
X182168800Y-96824800D02*
X179476400Y-94132400D01*
D20*
%TO.N,-12V*%
X156768800Y-107442000D02*
X160020000Y-107442000D01*
D19*
%TO.N,/In*%
X168402000Y-101092000D02*
X175361600Y-94132400D01*
X175361600Y-94132400D02*
X179476400Y-94132400D01*
%TO.N,Net-(Q4-B)*%
X177495200Y-110591600D02*
X179120800Y-108966000D01*
X179120800Y-108966000D02*
X179120800Y-106680000D01*
X165201600Y-113792000D02*
X166725600Y-112268000D01*
X166725600Y-112268000D02*
X175818800Y-112268000D01*
X175818800Y-112268000D02*
X177495200Y-110591600D01*
D20*
%TO.N,-12V*%
X165481000Y-106045000D02*
X168275000Y-106045000D01*
D19*
%TO.N,Net-(D2-A)*%
X162179000Y-98327000D02*
X162179000Y-100711000D01*
%TO.N,Net-(C1-Pad1)*%
X165227000Y-97917000D02*
X163097000Y-95787000D01*
X163097000Y-95787000D02*
X162179000Y-95787000D01*
%TD*%
%TA.AperFunction,Conductor*%
%TO.N,GNDREF*%
G36*
X174656122Y-93690585D02*
G01*
X174701877Y-93743389D01*
X174711821Y-93812547D01*
X174682796Y-93876103D01*
X174676764Y-93882581D01*
X172755957Y-95803387D01*
X172694634Y-95836872D01*
X172624942Y-95831888D01*
X172569009Y-95790016D01*
X172544592Y-95724552D01*
X172548502Y-95683611D01*
X172549393Y-95680289D01*
X172569543Y-95605087D01*
X172589498Y-95377000D01*
X172569543Y-95148913D01*
X172510284Y-94927757D01*
X172413523Y-94720251D01*
X172282198Y-94532700D01*
X172120300Y-94370802D01*
X171932749Y-94239477D01*
X171932746Y-94239476D01*
X171932744Y-94239474D01*
X171725246Y-94142717D01*
X171725243Y-94142716D01*
X171614665Y-94113086D01*
X171504084Y-94083456D01*
X171275999Y-94063501D01*
X171047915Y-94083456D01*
X170826753Y-94142717D01*
X170619255Y-94239474D01*
X170431696Y-94370805D01*
X170269805Y-94532696D01*
X170138474Y-94720255D01*
X170041717Y-94927753D01*
X169982456Y-95148915D01*
X169962501Y-95377000D01*
X169982456Y-95605084D01*
X169995462Y-95653621D01*
X170040934Y-95823326D01*
X170041717Y-95826246D01*
X170138474Y-96033744D01*
X170138475Y-96033745D01*
X170138477Y-96033749D01*
X170269802Y-96221300D01*
X170431700Y-96383198D01*
X170619251Y-96514523D01*
X170619254Y-96514524D01*
X170619255Y-96514525D01*
X170621151Y-96515409D01*
X170826757Y-96611284D01*
X171047913Y-96670543D01*
X171276000Y-96690498D01*
X171504087Y-96670543D01*
X171523001Y-96665475D01*
X171582612Y-96649502D01*
X171652461Y-96651163D01*
X171710324Y-96690325D01*
X171737829Y-96754553D01*
X171726243Y-96823455D01*
X171702387Y-96856957D01*
X169922181Y-98637164D01*
X169860858Y-98670649D01*
X169791166Y-98665665D01*
X169735233Y-98623793D01*
X169710816Y-98558329D01*
X169710500Y-98549483D01*
X169710500Y-97706671D01*
X169710500Y-97703362D01*
X169703989Y-97642799D01*
X169703988Y-97642797D01*
X169703988Y-97642794D01*
X169652889Y-97505796D01*
X169565261Y-97388738D01*
X169448203Y-97301110D01*
X169311205Y-97250011D01*
X169253924Y-97243853D01*
X169253918Y-97243852D01*
X169250638Y-97243500D01*
X167553362Y-97243500D01*
X167550082Y-97243852D01*
X167550075Y-97243853D01*
X167492794Y-97250011D01*
X167355796Y-97301110D01*
X167238738Y-97388738D01*
X167151110Y-97505796D01*
X167100011Y-97642794D01*
X167093853Y-97700075D01*
X167093500Y-97703362D01*
X167093500Y-99400638D01*
X167093852Y-99403918D01*
X167093853Y-99403924D01*
X167100011Y-99461205D01*
X167151110Y-99598203D01*
X167238738Y-99715261D01*
X167355796Y-99802889D01*
X167492794Y-99853988D01*
X167492797Y-99853988D01*
X167492799Y-99853989D01*
X167507497Y-99855569D01*
X167572048Y-99882307D01*
X167611897Y-99939699D01*
X167614391Y-100009524D01*
X167578739Y-100069613D01*
X167565368Y-100080433D01*
X167557698Y-100085803D01*
X167395805Y-100247696D01*
X167264474Y-100435255D01*
X167167717Y-100642753D01*
X167108456Y-100863915D01*
X167088501Y-101092000D01*
X167108456Y-101320084D01*
X167133686Y-101414243D01*
X167155080Y-101494087D01*
X167167717Y-101541246D01*
X167264474Y-101748744D01*
X167264476Y-101748746D01*
X167264477Y-101748749D01*
X167395802Y-101936300D01*
X167557700Y-102098198D01*
X167745251Y-102229523D01*
X167798401Y-102254307D01*
X167850839Y-102300477D01*
X167869992Y-102367670D01*
X167849777Y-102434552D01*
X167798403Y-102479069D01*
X167749520Y-102501864D01*
X167563180Y-102632341D01*
X167402341Y-102793180D01*
X167271865Y-102979519D01*
X167175733Y-103185673D01*
X167123128Y-103381999D01*
X167123128Y-103382000D01*
X168086314Y-103382000D01*
X168074359Y-103393955D01*
X168016835Y-103506852D01*
X167997014Y-103632000D01*
X168016835Y-103757148D01*
X168074359Y-103870045D01*
X168086314Y-103882000D01*
X167123128Y-103882000D01*
X167175733Y-104078326D01*
X167271865Y-104284480D01*
X167402341Y-104470819D01*
X167563180Y-104631658D01*
X167749516Y-104762132D01*
X167798400Y-104784927D01*
X167850839Y-104831099D01*
X167869992Y-104898292D01*
X167849777Y-104965174D01*
X167798402Y-105009691D01*
X167745256Y-105034474D01*
X167745255Y-105034475D01*
X167745251Y-105034477D01*
X167557700Y-105165802D01*
X167557696Y-105165805D01*
X167540821Y-105182681D01*
X167479498Y-105216166D01*
X167453140Y-105219000D01*
X166483039Y-105219000D01*
X166416000Y-105199315D01*
X166370658Y-105147406D01*
X166364525Y-105134256D01*
X166364523Y-105134251D01*
X166233198Y-104946700D01*
X166071300Y-104784802D01*
X165883749Y-104653477D01*
X165836577Y-104631480D01*
X165784140Y-104585311D01*
X165764988Y-104518117D01*
X165785203Y-104451236D01*
X165836577Y-104406719D01*
X165883749Y-104384723D01*
X166071300Y-104253398D01*
X166233198Y-104091500D01*
X166364523Y-103903949D01*
X166461284Y-103696443D01*
X166520543Y-103475287D01*
X166540498Y-103247200D01*
X166520543Y-103019113D01*
X166461284Y-102797957D01*
X166394094Y-102653867D01*
X166364525Y-102590455D01*
X166364524Y-102590454D01*
X166364523Y-102590451D01*
X166233198Y-102402900D01*
X166071300Y-102241002D01*
X165883749Y-102109677D01*
X165883746Y-102109676D01*
X165883744Y-102109674D01*
X165676246Y-102012917D01*
X165676243Y-102012916D01*
X165565664Y-101983286D01*
X165455084Y-101953656D01*
X165227000Y-101933701D01*
X164998915Y-101953656D01*
X164777753Y-102012917D01*
X164570251Y-102109676D01*
X164413969Y-102219106D01*
X164347763Y-102241433D01*
X164279996Y-102224423D01*
X164260620Y-102210347D01*
X164235203Y-102187830D01*
X164229748Y-102182695D01*
X163663171Y-101616118D01*
X163629686Y-101554795D01*
X163634670Y-101485103D01*
X163638462Y-101476050D01*
X163667284Y-101414243D01*
X163726543Y-101193087D01*
X163746498Y-100965000D01*
X163726543Y-100736913D01*
X163667284Y-100515757D01*
X163570523Y-100308251D01*
X163439198Y-100120700D01*
X163277300Y-99958802D01*
X163089749Y-99827477D01*
X162932468Y-99754136D01*
X162911495Y-99744356D01*
X162859056Y-99698184D01*
X162839900Y-99631974D01*
X162839900Y-99526166D01*
X162859585Y-99459127D01*
X162892773Y-99424593D01*
X163023300Y-99333198D01*
X163185198Y-99171300D01*
X163316523Y-98983749D01*
X163413284Y-98776243D01*
X163472543Y-98555087D01*
X163492498Y-98327000D01*
X163472543Y-98098913D01*
X163413284Y-97877757D01*
X163316523Y-97670251D01*
X163185198Y-97482700D01*
X163023300Y-97320802D01*
X162835749Y-97189477D01*
X162792653Y-97169381D01*
X162740214Y-97123208D01*
X162721063Y-97056014D01*
X162741279Y-96989133D01*
X162792654Y-96944618D01*
X162835749Y-96924523D01*
X163023300Y-96793198D01*
X163023302Y-96793195D01*
X163023496Y-96793060D01*
X163089702Y-96770733D01*
X163157470Y-96787743D01*
X163182301Y-96806954D01*
X163988750Y-97613403D01*
X164022235Y-97674726D01*
X164017251Y-97744418D01*
X164013452Y-97753487D01*
X163992716Y-97797955D01*
X163933456Y-98019115D01*
X163913501Y-98247199D01*
X163933456Y-98475284D01*
X163955708Y-98558329D01*
X163985804Y-98670649D01*
X163992717Y-98696446D01*
X164089474Y-98903944D01*
X164089476Y-98903946D01*
X164089477Y-98903949D01*
X164220802Y-99091500D01*
X164382700Y-99253398D01*
X164570251Y-99384723D01*
X164570254Y-99384724D01*
X164570255Y-99384725D01*
X164604381Y-99400638D01*
X164777757Y-99481484D01*
X164998913Y-99540743D01*
X165227000Y-99560698D01*
X165455087Y-99540743D01*
X165676243Y-99481484D01*
X165883749Y-99384723D01*
X166071300Y-99253398D01*
X166233198Y-99091500D01*
X166364523Y-98903949D01*
X166461284Y-98696443D01*
X166520543Y-98475287D01*
X166540498Y-98247200D01*
X166520543Y-98019113D01*
X166461284Y-97797957D01*
X166364523Y-97590451D01*
X166233198Y-97402900D01*
X166071300Y-97241002D01*
X165883749Y-97109677D01*
X165883746Y-97109676D01*
X165883744Y-97109674D01*
X165676246Y-97012917D01*
X165676243Y-97012916D01*
X165501491Y-96966091D01*
X165455084Y-96953656D01*
X165247219Y-96935470D01*
X165182151Y-96910017D01*
X165141172Y-96853427D01*
X165137294Y-96783665D01*
X165171748Y-96722880D01*
X165233595Y-96690373D01*
X165247220Y-96688414D01*
X165451487Y-96670543D01*
X165672643Y-96611284D01*
X165880149Y-96514523D01*
X166067700Y-96383198D01*
X166229598Y-96221300D01*
X166360923Y-96033749D01*
X166381017Y-95990655D01*
X166427190Y-95938215D01*
X166494383Y-95919063D01*
X166561264Y-95939278D01*
X166605782Y-95990655D01*
X166625877Y-96033749D01*
X166757202Y-96221300D01*
X166919100Y-96383198D01*
X167106651Y-96514523D01*
X167106654Y-96514524D01*
X167106655Y-96514525D01*
X167108551Y-96515409D01*
X167314157Y-96611284D01*
X167535313Y-96670543D01*
X167665879Y-96681966D01*
X167763399Y-96690498D01*
X167763399Y-96690497D01*
X167763400Y-96690498D01*
X167991487Y-96670543D01*
X168212643Y-96611284D01*
X168420149Y-96514523D01*
X168607700Y-96383198D01*
X168769598Y-96221300D01*
X168900923Y-96033749D01*
X168997684Y-95826243D01*
X169056943Y-95605087D01*
X169076898Y-95377000D01*
X169056943Y-95148913D01*
X168997684Y-94927757D01*
X168900923Y-94720251D01*
X168769598Y-94532700D01*
X168607700Y-94370802D01*
X168420149Y-94239477D01*
X168420146Y-94239476D01*
X168420144Y-94239474D01*
X168212646Y-94142717D01*
X168212643Y-94142716D01*
X168102065Y-94113086D01*
X167991484Y-94083456D01*
X167763400Y-94063501D01*
X167535315Y-94083456D01*
X167314153Y-94142717D01*
X167106655Y-94239474D01*
X166919096Y-94370805D01*
X166757205Y-94532696D01*
X166757202Y-94532699D01*
X166757202Y-94532700D01*
X166625877Y-94720251D01*
X166625875Y-94720254D01*
X166605780Y-94763347D01*
X166559607Y-94815785D01*
X166492413Y-94834936D01*
X166425532Y-94814719D01*
X166381018Y-94763345D01*
X166360923Y-94720251D01*
X166229598Y-94532700D01*
X166067700Y-94370802D01*
X165880149Y-94239477D01*
X165880146Y-94239476D01*
X165880144Y-94239474D01*
X165672646Y-94142717D01*
X165672643Y-94142716D01*
X165562065Y-94113086D01*
X165451484Y-94083456D01*
X165223400Y-94063501D01*
X164995315Y-94083456D01*
X164774153Y-94142717D01*
X164566655Y-94239474D01*
X164379096Y-94370805D01*
X164217205Y-94532696D01*
X164085874Y-94720255D01*
X163989117Y-94927753D01*
X163929856Y-95148915D01*
X163909888Y-95377151D01*
X163884436Y-95442220D01*
X163827845Y-95483199D01*
X163758083Y-95487077D01*
X163698679Y-95454026D01*
X163666349Y-95421696D01*
X163581094Y-95336441D01*
X163575977Y-95331005D01*
X163575268Y-95330205D01*
X163538477Y-95288676D01*
X163534422Y-95285877D01*
X163491943Y-95256555D01*
X163485911Y-95252117D01*
X163441419Y-95217260D01*
X163433281Y-95213597D01*
X163413739Y-95202575D01*
X163406393Y-95197505D01*
X163406391Y-95197504D01*
X163382427Y-95188415D01*
X163326726Y-95146237D01*
X163321128Y-95136828D01*
X163315281Y-95128477D01*
X163185198Y-94942700D01*
X163023300Y-94780802D01*
X162835749Y-94649477D01*
X162835746Y-94649476D01*
X162835744Y-94649474D01*
X162628246Y-94552717D01*
X162628243Y-94552716D01*
X162517664Y-94523086D01*
X162407084Y-94493456D01*
X162179000Y-94473501D01*
X161950915Y-94493456D01*
X161729753Y-94552717D01*
X161522255Y-94649474D01*
X161334696Y-94780805D01*
X161172805Y-94942696D01*
X161041474Y-95130255D01*
X160944717Y-95337752D01*
X160884245Y-95563433D01*
X160847879Y-95623093D01*
X160785032Y-95653621D01*
X160715656Y-95645326D01*
X160661779Y-95600840D01*
X160644695Y-95563431D01*
X160611266Y-95438674D01*
X160515134Y-95232519D01*
X160384658Y-95046180D01*
X160223819Y-94885341D01*
X160037480Y-94754865D01*
X159831326Y-94658733D01*
X159635000Y-94606126D01*
X159635000Y-95569314D01*
X159623045Y-95557359D01*
X159510148Y-95499835D01*
X159416481Y-95485000D01*
X159353519Y-95485000D01*
X159259852Y-95499835D01*
X159146955Y-95557359D01*
X159135000Y-95569314D01*
X159135000Y-94606127D01*
X159134999Y-94606126D01*
X158938673Y-94658733D01*
X158732519Y-94754865D01*
X158546180Y-94885341D01*
X158385341Y-95046180D01*
X158254865Y-95232519D01*
X158158733Y-95438673D01*
X158106128Y-95634999D01*
X158106128Y-95635000D01*
X159069314Y-95635000D01*
X159057359Y-95646955D01*
X158999835Y-95759852D01*
X158980014Y-95885000D01*
X158999835Y-96010148D01*
X159057359Y-96123045D01*
X159069314Y-96135000D01*
X158106128Y-96135000D01*
X158158733Y-96331326D01*
X158254865Y-96537480D01*
X158385341Y-96723819D01*
X158546181Y-96884659D01*
X158561211Y-96895183D01*
X158604837Y-96949760D01*
X158612031Y-97019258D01*
X158580509Y-97081613D01*
X158520280Y-97117028D01*
X158503346Y-97120048D01*
X158475798Y-97123010D01*
X158338796Y-97174110D01*
X158221738Y-97261738D01*
X158134110Y-97378796D01*
X158083011Y-97515794D01*
X158079785Y-97545802D01*
X158076500Y-97576362D01*
X158076500Y-97579671D01*
X158076500Y-98431714D01*
X158056815Y-98498753D01*
X158004011Y-98544508D01*
X157934853Y-98554452D01*
X157878191Y-98530983D01*
X157865001Y-98521109D01*
X157728005Y-98470011D01*
X157670724Y-98463853D01*
X157670718Y-98463852D01*
X157667438Y-98463500D01*
X155870162Y-98463500D01*
X155866882Y-98463852D01*
X155866875Y-98463853D01*
X155809594Y-98470011D01*
X155672596Y-98521110D01*
X155555538Y-98608738D01*
X155467910Y-98725796D01*
X155416811Y-98862794D01*
X155412387Y-98903949D01*
X155410300Y-98923362D01*
X155410300Y-100720638D01*
X155410652Y-100723918D01*
X155410653Y-100723924D01*
X155416811Y-100781205D01*
X155467910Y-100918203D01*
X155555538Y-101035261D01*
X155631333Y-101092000D01*
X155672596Y-101122889D01*
X155802182Y-101171222D01*
X155858113Y-101213093D01*
X155882530Y-101278557D01*
X155867678Y-101346830D01*
X155846528Y-101375084D01*
X155730688Y-101490924D01*
X155595200Y-101684421D01*
X155495369Y-101898507D01*
X155438164Y-102111999D01*
X155438164Y-102112000D01*
X156335114Y-102112000D01*
X156309307Y-102152156D01*
X156268800Y-102290111D01*
X156268800Y-102433889D01*
X156309307Y-102571844D01*
X156335114Y-102612000D01*
X155438164Y-102612000D01*
X155495369Y-102825492D01*
X155595199Y-103039576D01*
X155730693Y-103233081D01*
X155897718Y-103400106D01*
X156083831Y-103530425D01*
X156127456Y-103585002D01*
X156134648Y-103654501D01*
X156103126Y-103716855D01*
X156083831Y-103733575D01*
X155897718Y-103863893D01*
X155730690Y-104030921D01*
X155595200Y-104224421D01*
X155495369Y-104438507D01*
X155438164Y-104651999D01*
X155438164Y-104652000D01*
X156335114Y-104652000D01*
X156309307Y-104692156D01*
X156268800Y-104830111D01*
X156268800Y-104973889D01*
X156309307Y-105111844D01*
X156335114Y-105152000D01*
X155438164Y-105152000D01*
X155495369Y-105365492D01*
X155595199Y-105579576D01*
X155730693Y-105773081D01*
X155897718Y-105940106D01*
X156078602Y-106066763D01*
X156122226Y-106121340D01*
X156129419Y-106190839D01*
X156097897Y-106253193D01*
X156066498Y-106277392D01*
X156023222Y-106300812D01*
X155845560Y-106439094D01*
X155693079Y-106604730D01*
X155569938Y-106793211D01*
X155519550Y-106908087D01*
X155479504Y-106999384D01*
X155435878Y-107171658D01*
X155424235Y-107217636D01*
X155405643Y-107442000D01*
X155424235Y-107666363D01*
X155424235Y-107666366D01*
X155424236Y-107666368D01*
X155466222Y-107832168D01*
X155479505Y-107884618D01*
X155569938Y-108090788D01*
X155569940Y-108090791D01*
X155693078Y-108279268D01*
X155845560Y-108444906D01*
X156023224Y-108583189D01*
X156221226Y-108690342D01*
X156434165Y-108763444D01*
X156656231Y-108800500D01*
X156881369Y-108800500D01*
X157103435Y-108763444D01*
X157316374Y-108690342D01*
X157514376Y-108583189D01*
X157692040Y-108444906D01*
X157763816Y-108366936D01*
X157818057Y-108308017D01*
X157877944Y-108272026D01*
X157909286Y-108268000D01*
X158944140Y-108268000D01*
X159011179Y-108287685D01*
X159031821Y-108304319D01*
X159175700Y-108448198D01*
X159363251Y-108579523D01*
X159363254Y-108579524D01*
X159363255Y-108579525D01*
X159443821Y-108617093D01*
X159570757Y-108676284D01*
X159791913Y-108735543D01*
X159943970Y-108748846D01*
X160019999Y-108755498D01*
X160019999Y-108755497D01*
X160020000Y-108755498D01*
X160248087Y-108735543D01*
X160469243Y-108676284D01*
X160676749Y-108579523D01*
X160864300Y-108448198D01*
X161026198Y-108286300D01*
X161157523Y-108098749D01*
X161177617Y-108055655D01*
X161223790Y-108003215D01*
X161290983Y-107984063D01*
X161357864Y-108004278D01*
X161402382Y-108055655D01*
X161422477Y-108098749D01*
X161553802Y-108286300D01*
X161715700Y-108448198D01*
X161903251Y-108579523D01*
X161903254Y-108579524D01*
X161903255Y-108579525D01*
X161983821Y-108617093D01*
X162110757Y-108676284D01*
X162331913Y-108735543D01*
X162560000Y-108755498D01*
X162788087Y-108735543D01*
X163009243Y-108676284D01*
X163216749Y-108579523D01*
X163404300Y-108448198D01*
X163566198Y-108286300D01*
X163697523Y-108098749D01*
X163794284Y-107891243D01*
X163853543Y-107670087D01*
X163873498Y-107442000D01*
X163853543Y-107213913D01*
X163844430Y-107179904D01*
X163846091Y-107110056D01*
X163876521Y-107060130D01*
X164173396Y-106763256D01*
X164234719Y-106729771D01*
X164304411Y-106734755D01*
X164348757Y-106763256D01*
X164382700Y-106797198D01*
X164570251Y-106928523D01*
X164777757Y-107025284D01*
X164998913Y-107084543D01*
X165227000Y-107104498D01*
X165455087Y-107084543D01*
X165676243Y-107025284D01*
X165883749Y-106928523D01*
X165912939Y-106908084D01*
X165933875Y-106893425D01*
X166000082Y-106871098D01*
X166004998Y-106871000D01*
X167229512Y-106871000D01*
X167296551Y-106890685D01*
X167331086Y-106923876D01*
X167395802Y-107016300D01*
X167557700Y-107178198D01*
X167745251Y-107309523D01*
X167952757Y-107406284D01*
X168173913Y-107465543D01*
X168402000Y-107485498D01*
X168630087Y-107465543D01*
X168851243Y-107406284D01*
X169058749Y-107309523D01*
X169246300Y-107178198D01*
X169408198Y-107016300D01*
X169539523Y-106828749D01*
X169636284Y-106621243D01*
X169695543Y-106400087D01*
X169715498Y-106172000D01*
X169714764Y-106163616D01*
X169704229Y-106043190D01*
X169695543Y-105943913D01*
X169636284Y-105722757D01*
X169569518Y-105579576D01*
X169539525Y-105515255D01*
X169539524Y-105515254D01*
X169539523Y-105515251D01*
X169408198Y-105327700D01*
X169246300Y-105165802D01*
X169058749Y-105034477D01*
X169058748Y-105034476D01*
X169058746Y-105034475D01*
X169005598Y-105009692D01*
X168953159Y-104963519D01*
X168934007Y-104896325D01*
X168954223Y-104829444D01*
X169005600Y-104784927D01*
X169054481Y-104762133D01*
X169240819Y-104631658D01*
X169401658Y-104470819D01*
X169532134Y-104284480D01*
X169628266Y-104078326D01*
X169680872Y-103882000D01*
X168717686Y-103882000D01*
X168729641Y-103870045D01*
X168787165Y-103757148D01*
X168806986Y-103632000D01*
X168806986Y-103631999D01*
X174708501Y-103631999D01*
X174728456Y-103860084D01*
X174740210Y-103903949D01*
X174786934Y-104078326D01*
X174787717Y-104081246D01*
X174884474Y-104288744D01*
X174884476Y-104288746D01*
X174884477Y-104288749D01*
X175015802Y-104476300D01*
X175177700Y-104638198D01*
X175365251Y-104769523D01*
X175418401Y-104794307D01*
X175470839Y-104840477D01*
X175489992Y-104907670D01*
X175469777Y-104974552D01*
X175418403Y-105019069D01*
X175369520Y-105041864D01*
X175183180Y-105172341D01*
X175022341Y-105333180D01*
X174891865Y-105519519D01*
X174795733Y-105725673D01*
X174743128Y-105921999D01*
X174743128Y-105922000D01*
X175706314Y-105922000D01*
X175694359Y-105933955D01*
X175636835Y-106046852D01*
X175617014Y-106172000D01*
X175636835Y-106297148D01*
X175694359Y-106410045D01*
X175706314Y-106422000D01*
X174743128Y-106422000D01*
X174795733Y-106618326D01*
X174891865Y-106824480D01*
X175022341Y-107010819D01*
X175183180Y-107171658D01*
X175369519Y-107302134D01*
X175575673Y-107398266D01*
X175771999Y-107450871D01*
X175772000Y-107450871D01*
X175772000Y-106487686D01*
X175783955Y-106499641D01*
X175896852Y-106557165D01*
X175990519Y-106572000D01*
X176053481Y-106572000D01*
X176147148Y-106557165D01*
X176260045Y-106499641D01*
X176272000Y-106487686D01*
X176272000Y-107450871D01*
X176468326Y-107398266D01*
X176674480Y-107302134D01*
X176860819Y-107171658D01*
X177021658Y-107010819D01*
X177152134Y-106824480D01*
X177248266Y-106618326D01*
X177300872Y-106422000D01*
X176337686Y-106422000D01*
X176349641Y-106410045D01*
X176407165Y-106297148D01*
X176426986Y-106172000D01*
X176407165Y-106046852D01*
X176349641Y-105933955D01*
X176337686Y-105922000D01*
X177300872Y-105922000D01*
X177300871Y-105921999D01*
X177248266Y-105725673D01*
X177152134Y-105519519D01*
X177021658Y-105333180D01*
X176860819Y-105172341D01*
X176674482Y-105041866D01*
X176625597Y-105019070D01*
X176573158Y-104972897D01*
X176554007Y-104905703D01*
X176574223Y-104838822D01*
X176625595Y-104794308D01*
X176678749Y-104769523D01*
X176866300Y-104638198D01*
X177028198Y-104476300D01*
X177159523Y-104288749D01*
X177256284Y-104081243D01*
X177315543Y-103860087D01*
X177335498Y-103632000D01*
X177315543Y-103403913D01*
X177256284Y-103182757D01*
X177179976Y-103019113D01*
X177159525Y-102975255D01*
X177159524Y-102975254D01*
X177159523Y-102975251D01*
X177028198Y-102787700D01*
X176866300Y-102625802D01*
X176678749Y-102494477D01*
X176635653Y-102474381D01*
X176583214Y-102428208D01*
X176564063Y-102361014D01*
X176584279Y-102294133D01*
X176635654Y-102249618D01*
X176678749Y-102229523D01*
X176866300Y-102098198D01*
X177028198Y-101936300D01*
X177159523Y-101748749D01*
X177256284Y-101541243D01*
X177315543Y-101320087D01*
X177320275Y-101265999D01*
X177807301Y-101265999D01*
X177827256Y-101494084D01*
X177886517Y-101715246D01*
X177983274Y-101922744D01*
X177983276Y-101922746D01*
X177983277Y-101922749D01*
X178114602Y-102110300D01*
X178276500Y-102272198D01*
X178464051Y-102403523D01*
X178464054Y-102403524D01*
X178464055Y-102403525D01*
X178530593Y-102434552D01*
X178671557Y-102500284D01*
X178892713Y-102559543D01*
X179120800Y-102579498D01*
X179348887Y-102559543D01*
X179570043Y-102500284D01*
X179777549Y-102403523D01*
X179965100Y-102272198D01*
X180126998Y-102110300D01*
X180258323Y-101922749D01*
X180355084Y-101715243D01*
X180414343Y-101494087D01*
X180434298Y-101266000D01*
X180430344Y-101220811D01*
X180414343Y-101037915D01*
X180414343Y-101037913D01*
X180355084Y-100816757D01*
X180273270Y-100641306D01*
X180258325Y-100609255D01*
X180258324Y-100609254D01*
X180258323Y-100609251D01*
X180126998Y-100421700D01*
X179965100Y-100259802D01*
X179777549Y-100128477D01*
X179777546Y-100128476D01*
X179777544Y-100128474D01*
X179570046Y-100031717D01*
X179570043Y-100031716D01*
X179459464Y-100002086D01*
X179348884Y-99972456D01*
X179120799Y-99952501D01*
X178892715Y-99972456D01*
X178671553Y-100031717D01*
X178464055Y-100128474D01*
X178464050Y-100128477D01*
X178464051Y-100128477D01*
X178293784Y-100247700D01*
X178276496Y-100259805D01*
X178114605Y-100421696D01*
X178114602Y-100421699D01*
X178114602Y-100421700D01*
X178105111Y-100435255D01*
X177983274Y-100609255D01*
X177886517Y-100816753D01*
X177827256Y-101037915D01*
X177807301Y-101265999D01*
X177320275Y-101265999D01*
X177335498Y-101092000D01*
X177315543Y-100863913D01*
X177256284Y-100642757D01*
X177159523Y-100435251D01*
X177028198Y-100247700D01*
X176866300Y-100085802D01*
X176678749Y-99954477D01*
X176674511Y-99952501D01*
X176635655Y-99934382D01*
X176583215Y-99888210D01*
X176564063Y-99821017D01*
X176584278Y-99754136D01*
X176635655Y-99709618D01*
X176638882Y-99708112D01*
X176678749Y-99689523D01*
X176866300Y-99558198D01*
X177028198Y-99396300D01*
X177159523Y-99208749D01*
X177256284Y-99001243D01*
X177315543Y-98780087D01*
X177335498Y-98552000D01*
X177315543Y-98323913D01*
X177256284Y-98102757D01*
X177159523Y-97895251D01*
X177028198Y-97707700D01*
X176866300Y-97545802D01*
X176678749Y-97414477D01*
X176678746Y-97414476D01*
X176678744Y-97414474D01*
X176471246Y-97317717D01*
X176471243Y-97317716D01*
X176262332Y-97261738D01*
X176250084Y-97258456D01*
X176021999Y-97238501D01*
X175793915Y-97258456D01*
X175572753Y-97317717D01*
X175365255Y-97414474D01*
X175177696Y-97545805D01*
X175015805Y-97707696D01*
X174884474Y-97895255D01*
X174787717Y-98102753D01*
X174728456Y-98323915D01*
X174708501Y-98551999D01*
X174728456Y-98780084D01*
X174728457Y-98780087D01*
X174783028Y-98983749D01*
X174787717Y-99001246D01*
X174884474Y-99208744D01*
X174884476Y-99208746D01*
X174884477Y-99208749D01*
X175015802Y-99396300D01*
X175177700Y-99558198D01*
X175365251Y-99689523D01*
X175405334Y-99708214D01*
X175408345Y-99709618D01*
X175460784Y-99755791D01*
X175479936Y-99822984D01*
X175459720Y-99889865D01*
X175408345Y-99934382D01*
X175369486Y-99952502D01*
X175365251Y-99954477D01*
X175185368Y-100080433D01*
X175177696Y-100085805D01*
X175015805Y-100247696D01*
X174884474Y-100435255D01*
X174787717Y-100642753D01*
X174728456Y-100863915D01*
X174708501Y-101091999D01*
X174728456Y-101320084D01*
X174753686Y-101414243D01*
X174775080Y-101494087D01*
X174787717Y-101541246D01*
X174884474Y-101748744D01*
X174884476Y-101748746D01*
X174884477Y-101748749D01*
X175015802Y-101936300D01*
X175177700Y-102098198D01*
X175365251Y-102229523D01*
X175405334Y-102248214D01*
X175408345Y-102249618D01*
X175460784Y-102295791D01*
X175479936Y-102362984D01*
X175459720Y-102429865D01*
X175408345Y-102474382D01*
X175365253Y-102494476D01*
X175365251Y-102494477D01*
X175177700Y-102625802D01*
X175177696Y-102625805D01*
X175015805Y-102787696D01*
X174884474Y-102975255D01*
X174787717Y-103182753D01*
X174728456Y-103403915D01*
X174708501Y-103631999D01*
X168806986Y-103631999D01*
X168787165Y-103506852D01*
X168729641Y-103393955D01*
X168717686Y-103382000D01*
X169680872Y-103382000D01*
X169680871Y-103381999D01*
X169628266Y-103185673D01*
X169532134Y-102979519D01*
X169401658Y-102793180D01*
X169240819Y-102632341D01*
X169054482Y-102501866D01*
X169005597Y-102479070D01*
X168953158Y-102432897D01*
X168934007Y-102365703D01*
X168954223Y-102298822D01*
X169005595Y-102254308D01*
X169058749Y-102229523D01*
X169246300Y-102098198D01*
X169408198Y-101936300D01*
X169539523Y-101748749D01*
X169636284Y-101541243D01*
X169695543Y-101320087D01*
X169715498Y-101092000D01*
X169695543Y-100863913D01*
X169686430Y-100829904D01*
X169688091Y-100760056D01*
X169718521Y-100710130D01*
X174803953Y-95624699D01*
X174865273Y-95591217D01*
X174934965Y-95596201D01*
X174990898Y-95638073D01*
X175011406Y-95680289D01*
X175049733Y-95823326D01*
X175145866Y-96029484D01*
X175196972Y-96102471D01*
X175196973Y-96102472D01*
X175878045Y-95421399D01*
X175890835Y-95502148D01*
X175948359Y-95615045D01*
X176037955Y-95704641D01*
X176150852Y-95762165D01*
X176231599Y-95774953D01*
X175550526Y-96456025D01*
X175550526Y-96456026D01*
X175623515Y-96507133D01*
X175829673Y-96603266D01*
X176049397Y-96662141D01*
X176276000Y-96681966D01*
X176502602Y-96662141D01*
X176722326Y-96603266D01*
X176928480Y-96507134D01*
X177001472Y-96456025D01*
X176320401Y-95774953D01*
X176401148Y-95762165D01*
X176514045Y-95704641D01*
X176603641Y-95615045D01*
X176661165Y-95502148D01*
X176673953Y-95421400D01*
X177355025Y-96102472D01*
X177406134Y-96029480D01*
X177502266Y-95823326D01*
X177561141Y-95603602D01*
X177580966Y-95376999D01*
X177561141Y-95150397D01*
X177507283Y-94949394D01*
X177508946Y-94879544D01*
X177548108Y-94821681D01*
X177612337Y-94794177D01*
X177627058Y-94793300D01*
X178623514Y-94793300D01*
X178690553Y-94812985D01*
X178736308Y-94865789D01*
X178746252Y-94934947D01*
X178717227Y-94998503D01*
X178675918Y-95029682D01*
X178464055Y-95128474D01*
X178378449Y-95188416D01*
X178284177Y-95254427D01*
X178276496Y-95259805D01*
X178114605Y-95421696D01*
X178114602Y-95421699D01*
X178114602Y-95421700D01*
X178102717Y-95438674D01*
X177983274Y-95609255D01*
X177886517Y-95816753D01*
X177827256Y-96037915D01*
X177807301Y-96265999D01*
X177827256Y-96494084D01*
X177827257Y-96494087D01*
X177877599Y-96681966D01*
X177886517Y-96715246D01*
X177983274Y-96922744D01*
X177983276Y-96922746D01*
X177983277Y-96922749D01*
X178114602Y-97110300D01*
X178276500Y-97272198D01*
X178464051Y-97403523D01*
X178464054Y-97403524D01*
X178464055Y-97403525D01*
X178487542Y-97414477D01*
X178671557Y-97500284D01*
X178892713Y-97559543D01*
X179044770Y-97572846D01*
X179120799Y-97579498D01*
X179120799Y-97579497D01*
X179120800Y-97579498D01*
X179348887Y-97559543D01*
X179570043Y-97500284D01*
X179777549Y-97403523D01*
X179965100Y-97272198D01*
X180126998Y-97110300D01*
X180258323Y-96922749D01*
X180355084Y-96715243D01*
X180414343Y-96494087D01*
X180430514Y-96309250D01*
X180455966Y-96244182D01*
X180512557Y-96203203D01*
X180582319Y-96199325D01*
X180641723Y-96232377D01*
X181471581Y-97062234D01*
X181505066Y-97123557D01*
X181507900Y-97149915D01*
X181507900Y-98339500D01*
X181488215Y-98406539D01*
X181435411Y-98452294D01*
X181383900Y-98463500D01*
X181270162Y-98463500D01*
X181266882Y-98463852D01*
X181266875Y-98463853D01*
X181209594Y-98470011D01*
X181072596Y-98521110D01*
X180955538Y-98608738D01*
X180867910Y-98725796D01*
X180816811Y-98862794D01*
X180812387Y-98903949D01*
X180810300Y-98923362D01*
X180810300Y-100720638D01*
X180810652Y-100723918D01*
X180810653Y-100723924D01*
X180816811Y-100781205D01*
X180867910Y-100918203D01*
X180955538Y-101035261D01*
X181031333Y-101092000D01*
X181072596Y-101122889D01*
X181190396Y-101166826D01*
X181246327Y-101208697D01*
X181270744Y-101274161D01*
X181255892Y-101342434D01*
X181238290Y-101366990D01*
X181093079Y-101524730D01*
X180969938Y-101713211D01*
X180888661Y-101898507D01*
X180879504Y-101919384D01*
X180855818Y-102012917D01*
X180824235Y-102137636D01*
X180805643Y-102361999D01*
X180824235Y-102586363D01*
X180824235Y-102586366D01*
X180824236Y-102586368D01*
X180875220Y-102787700D01*
X180879505Y-102804618D01*
X180969938Y-103010788D01*
X180969940Y-103010791D01*
X181093078Y-103199268D01*
X181245560Y-103364906D01*
X181423224Y-103503189D01*
X181459730Y-103522945D01*
X181509320Y-103572162D01*
X181524430Y-103640379D01*
X181500259Y-103705935D01*
X181459733Y-103741052D01*
X181423227Y-103760809D01*
X181423225Y-103760810D01*
X181423224Y-103760811D01*
X181295676Y-103860087D01*
X181245560Y-103899094D01*
X181093079Y-104064730D01*
X180969938Y-104253211D01*
X180888661Y-104438507D01*
X180879504Y-104459384D01*
X180875220Y-104476303D01*
X180824235Y-104677636D01*
X180805643Y-104902000D01*
X180824235Y-105126363D01*
X180824235Y-105126366D01*
X180824236Y-105126368D01*
X180875220Y-105327700D01*
X180879505Y-105344618D01*
X180969938Y-105550788D01*
X180969940Y-105550791D01*
X181093078Y-105739268D01*
X181245560Y-105904906D01*
X181423224Y-106043189D01*
X181459730Y-106062945D01*
X181509320Y-106112162D01*
X181524430Y-106180379D01*
X181500259Y-106245935D01*
X181459733Y-106281052D01*
X181423227Y-106300809D01*
X181423225Y-106300810D01*
X181423224Y-106300811D01*
X181295676Y-106400087D01*
X181245560Y-106439094D01*
X181093079Y-106604730D01*
X180969938Y-106793211D01*
X180919550Y-106908087D01*
X180879504Y-106999384D01*
X180835878Y-107171658D01*
X180824235Y-107217636D01*
X180805643Y-107442000D01*
X180824235Y-107666363D01*
X180824235Y-107666366D01*
X180824236Y-107666368D01*
X180866222Y-107832168D01*
X180879505Y-107884618D01*
X180969938Y-108090788D01*
X180969940Y-108090791D01*
X181093078Y-108279268D01*
X181245560Y-108444906D01*
X181423224Y-108583189D01*
X181621226Y-108690342D01*
X181834165Y-108763444D01*
X182056231Y-108800500D01*
X182281369Y-108800500D01*
X182503435Y-108763444D01*
X182716374Y-108690342D01*
X182914376Y-108583189D01*
X183092040Y-108444906D01*
X183244522Y-108279268D01*
X183367660Y-108090791D01*
X183458096Y-107884616D01*
X183513364Y-107666368D01*
X183531956Y-107442000D01*
X183513364Y-107217632D01*
X183458096Y-106999384D01*
X183367660Y-106793209D01*
X183244522Y-106604732D01*
X183092040Y-106439094D01*
X182919082Y-106304474D01*
X182914375Y-106300810D01*
X182877867Y-106281053D01*
X182828277Y-106231833D01*
X182813170Y-106163616D01*
X182837341Y-106098061D01*
X182877866Y-106062946D01*
X182914376Y-106043189D01*
X183092040Y-105904906D01*
X183244522Y-105739268D01*
X183367660Y-105550791D01*
X183458096Y-105344616D01*
X183513364Y-105126368D01*
X183531956Y-104902000D01*
X183513364Y-104677632D01*
X183458096Y-104459384D01*
X183367660Y-104253209D01*
X183244522Y-104064732D01*
X183092040Y-103899094D01*
X182914376Y-103760811D01*
X182877867Y-103741053D01*
X182828278Y-103691836D01*
X182813170Y-103623619D01*
X182837340Y-103558063D01*
X182877867Y-103522946D01*
X182914376Y-103503189D01*
X183092040Y-103364906D01*
X183244522Y-103199268D01*
X183367660Y-103010791D01*
X183458096Y-102804616D01*
X183513364Y-102586368D01*
X183531956Y-102362000D01*
X183513364Y-102137632D01*
X183458096Y-101919384D01*
X183367660Y-101713209D01*
X183244522Y-101524732D01*
X183244521Y-101524731D01*
X183244518Y-101524726D01*
X183099310Y-101366990D01*
X183068387Y-101304336D01*
X183076247Y-101234910D01*
X183120394Y-101180754D01*
X183147196Y-101166829D01*
X183265004Y-101122889D01*
X183382061Y-101035261D01*
X183469689Y-100918204D01*
X183507529Y-100816753D01*
X183520788Y-100781205D01*
X183520788Y-100781203D01*
X183520789Y-100781201D01*
X183527300Y-100720638D01*
X183527300Y-98923362D01*
X183520789Y-98862799D01*
X183520788Y-98862797D01*
X183520788Y-98862794D01*
X183469689Y-98725796D01*
X183382061Y-98608738D01*
X183265003Y-98521110D01*
X183128005Y-98470011D01*
X183070724Y-98463853D01*
X183070718Y-98463852D01*
X183067438Y-98463500D01*
X183064128Y-98463500D01*
X182953700Y-98463500D01*
X182886661Y-98443815D01*
X182840906Y-98391011D01*
X182829700Y-98339500D01*
X182829700Y-96848526D01*
X182829926Y-96841039D01*
X182833340Y-96784600D01*
X182823147Y-96728984D01*
X182822019Y-96721575D01*
X182821251Y-96715246D01*
X182815208Y-96665475D01*
X182812046Y-96657138D01*
X182806016Y-96635508D01*
X182804409Y-96626736D01*
X182781205Y-96575179D01*
X182778347Y-96568282D01*
X182758296Y-96515409D01*
X182757686Y-96514525D01*
X182753224Y-96508060D01*
X182742202Y-96488517D01*
X182741471Y-96486893D01*
X182738540Y-96480381D01*
X182703676Y-96435880D01*
X182699237Y-96429847D01*
X182667124Y-96383323D01*
X182624802Y-96345829D01*
X182619349Y-96340695D01*
X181407128Y-95128474D01*
X180161233Y-93882580D01*
X180127749Y-93821258D01*
X180132733Y-93751566D01*
X180174605Y-93695633D01*
X180240069Y-93671216D01*
X180248915Y-93670900D01*
X183776300Y-93670900D01*
X183843339Y-93690585D01*
X183889094Y-93743389D01*
X183900300Y-93794900D01*
X183900300Y-112937311D01*
X183880615Y-113004350D01*
X183827811Y-113050105D01*
X183758653Y-113060049D01*
X183695097Y-113031024D01*
X183674726Y-113008435D01*
X183632198Y-112947700D01*
X183470303Y-112785805D01*
X183470300Y-112785802D01*
X183282749Y-112654477D01*
X183282746Y-112654476D01*
X183282744Y-112654474D01*
X183075246Y-112557717D01*
X183075243Y-112557716D01*
X182957244Y-112526098D01*
X182854084Y-112498456D01*
X182626000Y-112478501D01*
X182397915Y-112498456D01*
X182176753Y-112557717D01*
X181969255Y-112654474D01*
X181969250Y-112654477D01*
X181969251Y-112654477D01*
X181809518Y-112766324D01*
X181781696Y-112785805D01*
X181619805Y-112947696D01*
X181488474Y-113135255D01*
X181391717Y-113342753D01*
X181332456Y-113563915D01*
X181312501Y-113792000D01*
X181332456Y-114020084D01*
X181332457Y-114020087D01*
X181390980Y-114238498D01*
X181391717Y-114241246D01*
X181488474Y-114448744D01*
X181488476Y-114448746D01*
X181488477Y-114448749D01*
X181619802Y-114636300D01*
X181781700Y-114798198D01*
X181969251Y-114929523D01*
X182009334Y-114948214D01*
X182012345Y-114949618D01*
X182064784Y-114995791D01*
X182083936Y-115062984D01*
X182063720Y-115129865D01*
X182012345Y-115174382D01*
X181969255Y-115194475D01*
X181969251Y-115194477D01*
X181963893Y-115198229D01*
X181781696Y-115325805D01*
X181619801Y-115487700D01*
X181511057Y-115643002D01*
X181456480Y-115686627D01*
X181386982Y-115693819D01*
X181324627Y-115662297D01*
X181289214Y-115602067D01*
X181285955Y-115561070D01*
X181287061Y-115548435D01*
X181298507Y-115417600D01*
X181279315Y-115198229D01*
X181222320Y-114985524D01*
X181129256Y-114785947D01*
X181002949Y-114605562D01*
X180847238Y-114449851D01*
X180666854Y-114323544D01*
X180553818Y-114270835D01*
X180467277Y-114230480D01*
X180254568Y-114173484D01*
X180035199Y-114154292D01*
X179815831Y-114173484D01*
X179603122Y-114230480D01*
X179444732Y-114304339D01*
X179403547Y-114323544D01*
X179289697Y-114403263D01*
X179223158Y-114449854D01*
X179067454Y-114605558D01*
X179067451Y-114605561D01*
X179067451Y-114605562D01*
X178955389Y-114765604D01*
X178941143Y-114785949D01*
X178877582Y-114922256D01*
X178831410Y-114974695D01*
X178764216Y-114993847D01*
X178697335Y-114973631D01*
X178652818Y-114922256D01*
X178638834Y-114892268D01*
X178589256Y-114785947D01*
X178462949Y-114605562D01*
X178307238Y-114449851D01*
X178126854Y-114323544D01*
X178013818Y-114270835D01*
X177927277Y-114230480D01*
X177714568Y-114173484D01*
X177495199Y-114154292D01*
X177275831Y-114173484D01*
X177063122Y-114230480D01*
X176904732Y-114304339D01*
X176863547Y-114323544D01*
X176749697Y-114403263D01*
X176683158Y-114449854D01*
X176527454Y-114605558D01*
X176527451Y-114605561D01*
X176527451Y-114605562D01*
X176441700Y-114728028D01*
X176439275Y-114731491D01*
X176384698Y-114775116D01*
X176315199Y-114782308D01*
X176252845Y-114750786D01*
X176217431Y-114690556D01*
X176213700Y-114660367D01*
X176213700Y-114622271D01*
X176213700Y-114618962D01*
X176207189Y-114558399D01*
X176207188Y-114558397D01*
X176207188Y-114558394D01*
X176156089Y-114421396D01*
X176068461Y-114304338D01*
X175951403Y-114216710D01*
X175814405Y-114165611D01*
X175757124Y-114159453D01*
X175757118Y-114159452D01*
X175753838Y-114159100D01*
X174156562Y-114159100D01*
X174153282Y-114159452D01*
X174153275Y-114159453D01*
X174095994Y-114165611D01*
X173958996Y-114216710D01*
X173841937Y-114304339D01*
X173788293Y-114375999D01*
X173732360Y-114417870D01*
X173662668Y-114422854D01*
X173617905Y-114403263D01*
X173504054Y-114323544D01*
X173391018Y-114270835D01*
X173304477Y-114230480D01*
X173091768Y-114173484D01*
X172872399Y-114154292D01*
X172653031Y-114173484D01*
X172440322Y-114230480D01*
X172281932Y-114304339D01*
X172240747Y-114323544D01*
X172126897Y-114403263D01*
X172060358Y-114449854D01*
X171904654Y-114605558D01*
X171904651Y-114605561D01*
X171904651Y-114605562D01*
X171792589Y-114765604D01*
X171778343Y-114785949D01*
X171710092Y-114932312D01*
X171663919Y-114984751D01*
X171596726Y-115003903D01*
X171529844Y-114983687D01*
X171485328Y-114932311D01*
X171419069Y-114790217D01*
X171375523Y-114728027D01*
X170730353Y-115373196D01*
X170717565Y-115292452D01*
X170660041Y-115179555D01*
X170570445Y-115089959D01*
X170457548Y-115032435D01*
X170376801Y-115019646D01*
X171021972Y-114374475D01*
X171021971Y-114374473D01*
X170959786Y-114330931D01*
X170761561Y-114238498D01*
X170550286Y-114181887D01*
X170332400Y-114162824D01*
X170114513Y-114181887D01*
X169903240Y-114238497D01*
X169705011Y-114330933D01*
X169642828Y-114374474D01*
X169642827Y-114374475D01*
X170287999Y-115019646D01*
X170207252Y-115032435D01*
X170094355Y-115089959D01*
X170004759Y-115179555D01*
X169947235Y-115292452D01*
X169934446Y-115373198D01*
X169289275Y-114728027D01*
X169289274Y-114728028D01*
X169276475Y-114746308D01*
X169221898Y-114789933D01*
X169152400Y-114797127D01*
X169090045Y-114765604D01*
X169054631Y-114705374D01*
X169050900Y-114675185D01*
X169050900Y-114622271D01*
X169050900Y-114618962D01*
X169044389Y-114558399D01*
X169044388Y-114558397D01*
X169044388Y-114558394D01*
X168993289Y-114421396D01*
X168905661Y-114304338D01*
X168788603Y-114216710D01*
X168651605Y-114165611D01*
X168594324Y-114159453D01*
X168594318Y-114159452D01*
X168591038Y-114159100D01*
X166993762Y-114159100D01*
X166990482Y-114159452D01*
X166990475Y-114159453D01*
X166933194Y-114165611D01*
X166796196Y-114216710D01*
X166679140Y-114304337D01*
X166659501Y-114330572D01*
X166603567Y-114372443D01*
X166533875Y-114377427D01*
X166472552Y-114343942D01*
X166439068Y-114282618D01*
X166440458Y-114224169D01*
X166495143Y-114020087D01*
X166515098Y-113792000D01*
X166495143Y-113563913D01*
X166486030Y-113529902D01*
X166487693Y-113460053D01*
X166518122Y-113410130D01*
X166963034Y-112965219D01*
X167024358Y-112931734D01*
X167050716Y-112928900D01*
X175795073Y-112928900D01*
X175802560Y-112929126D01*
X175858997Y-112932540D01*
X175914639Y-112922342D01*
X175921989Y-112921223D01*
X175978125Y-112914408D01*
X175986462Y-112911245D01*
X176008082Y-112905217D01*
X176016864Y-112903609D01*
X176068420Y-112880404D01*
X176075317Y-112877547D01*
X176128191Y-112857496D01*
X176135541Y-112852421D01*
X176155080Y-112841401D01*
X176163220Y-112837739D01*
X176207722Y-112802872D01*
X176213731Y-112798451D01*
X176260277Y-112766324D01*
X176297777Y-112723993D01*
X176302895Y-112718556D01*
X177154155Y-111867297D01*
X177215476Y-111833814D01*
X177265001Y-111834994D01*
X177265021Y-111834770D01*
X177268549Y-111835078D01*
X177273933Y-111835206D01*
X177275829Y-111835715D01*
X177275830Y-111835715D01*
X177275834Y-111835716D01*
X177495199Y-111854907D01*
X177495199Y-111854906D01*
X177495200Y-111854907D01*
X177714571Y-111835715D01*
X177927276Y-111778720D01*
X178126854Y-111685656D01*
X178307238Y-111559349D01*
X178462949Y-111403638D01*
X178589256Y-111223254D01*
X178652817Y-111086944D01*
X178698990Y-111034504D01*
X178766183Y-111015352D01*
X178833065Y-111035567D01*
X178877582Y-111086944D01*
X178941141Y-111223249D01*
X178941143Y-111223251D01*
X178941144Y-111223254D01*
X179067451Y-111403638D01*
X179223162Y-111559349D01*
X179403546Y-111685656D01*
X179603124Y-111778720D01*
X179815829Y-111835715D01*
X179962076Y-111848509D01*
X180035199Y-111854907D01*
X180035199Y-111854906D01*
X180035200Y-111854907D01*
X180254571Y-111835715D01*
X180467276Y-111778720D01*
X180666854Y-111685656D01*
X180847238Y-111559349D01*
X181002949Y-111403638D01*
X181129256Y-111223254D01*
X181222320Y-111023676D01*
X181279315Y-110810971D01*
X181298507Y-110591600D01*
X181279315Y-110372229D01*
X181222320Y-110159524D01*
X181129256Y-109959947D01*
X181002949Y-109779562D01*
X180847238Y-109623851D01*
X180666854Y-109497544D01*
X180561296Y-109448322D01*
X180467277Y-109404480D01*
X180254568Y-109347484D01*
X180035199Y-109328292D01*
X179878716Y-109341982D01*
X179810216Y-109328215D01*
X179760033Y-109279599D01*
X179744100Y-109211571D01*
X179754836Y-109167558D01*
X179756409Y-109164064D01*
X179758016Y-109155290D01*
X179764045Y-109133662D01*
X179767208Y-109125325D01*
X179774023Y-109069189D01*
X179775142Y-109061839D01*
X179785340Y-109006197D01*
X179781926Y-108949759D01*
X179781700Y-108942272D01*
X179781700Y-107879166D01*
X179801385Y-107812127D01*
X179834573Y-107777593D01*
X179965100Y-107686198D01*
X180126998Y-107524300D01*
X180258323Y-107336749D01*
X180355084Y-107129243D01*
X180414343Y-106908087D01*
X180434298Y-106680000D01*
X180414343Y-106451913D01*
X180355084Y-106230757D01*
X180258323Y-106023251D01*
X180126998Y-105835700D01*
X179965100Y-105673802D01*
X179777549Y-105542477D01*
X179777548Y-105542476D01*
X179777546Y-105542475D01*
X179724398Y-105517692D01*
X179671959Y-105471519D01*
X179652807Y-105404325D01*
X179673023Y-105337444D01*
X179724400Y-105292927D01*
X179773281Y-105270133D01*
X179846272Y-105219025D01*
X179165201Y-104537953D01*
X179245948Y-104525165D01*
X179358845Y-104467641D01*
X179448441Y-104378045D01*
X179505965Y-104265148D01*
X179518753Y-104184400D01*
X180199825Y-104865472D01*
X180250934Y-104792480D01*
X180347066Y-104586326D01*
X180405941Y-104366602D01*
X180425766Y-104139999D01*
X180405941Y-103913397D01*
X180347066Y-103693673D01*
X180250933Y-103487515D01*
X180199825Y-103414526D01*
X179518753Y-104095598D01*
X179505965Y-104014852D01*
X179448441Y-103901955D01*
X179358845Y-103812359D01*
X179245948Y-103754835D01*
X179165200Y-103742046D01*
X179846272Y-103060974D01*
X179846271Y-103060972D01*
X179773284Y-103009866D01*
X179567126Y-102913733D01*
X179347402Y-102854858D01*
X179120800Y-102835033D01*
X178894197Y-102854858D01*
X178674472Y-102913733D01*
X178468316Y-103009865D01*
X178395327Y-103060973D01*
X178395326Y-103060973D01*
X179076400Y-103742046D01*
X178995652Y-103754835D01*
X178882755Y-103812359D01*
X178793159Y-103901955D01*
X178735635Y-104014852D01*
X178722846Y-104095599D01*
X178041773Y-103414526D01*
X178041773Y-103414527D01*
X177990665Y-103487516D01*
X177894533Y-103693672D01*
X177835658Y-103913397D01*
X177815833Y-104140000D01*
X177835658Y-104366602D01*
X177894533Y-104586326D01*
X177990666Y-104792484D01*
X178041772Y-104865471D01*
X178041774Y-104865472D01*
X178722846Y-104184399D01*
X178735635Y-104265148D01*
X178793159Y-104378045D01*
X178882755Y-104467641D01*
X178995652Y-104525165D01*
X179076399Y-104537953D01*
X178395326Y-105219025D01*
X178395326Y-105219026D01*
X178468312Y-105270131D01*
X178517200Y-105292927D01*
X178569639Y-105339099D01*
X178588792Y-105406292D01*
X178568577Y-105473174D01*
X178517202Y-105517691D01*
X178464056Y-105542474D01*
X178464055Y-105542475D01*
X178464051Y-105542477D01*
X178276500Y-105673802D01*
X178276496Y-105673805D01*
X178114605Y-105835696D01*
X177983274Y-106023255D01*
X177886517Y-106230753D01*
X177827256Y-106451915D01*
X177807301Y-106680000D01*
X177827256Y-106908084D01*
X177886517Y-107129246D01*
X177983274Y-107336744D01*
X177983276Y-107336746D01*
X177983277Y-107336749D01*
X178114602Y-107524300D01*
X178276500Y-107686198D01*
X178407025Y-107777592D01*
X178450648Y-107832168D01*
X178459900Y-107879166D01*
X178459900Y-108640883D01*
X178440215Y-108707922D01*
X178423581Y-108728564D01*
X177836245Y-109315899D01*
X177774922Y-109349384D01*
X177725397Y-109348206D01*
X177725378Y-109348430D01*
X177721870Y-109348123D01*
X177716479Y-109347995D01*
X177714574Y-109347484D01*
X177495199Y-109328292D01*
X177275831Y-109347484D01*
X177063122Y-109404480D01*
X176904732Y-109478339D01*
X176863547Y-109497544D01*
X176723800Y-109595396D01*
X176683158Y-109623854D01*
X176527454Y-109779558D01*
X176527451Y-109779561D01*
X176527451Y-109779562D01*
X176456844Y-109880400D01*
X176439275Y-109905491D01*
X176384698Y-109949116D01*
X176315199Y-109956308D01*
X176252845Y-109924786D01*
X176217431Y-109864556D01*
X176213700Y-109834367D01*
X176213700Y-109796271D01*
X176213700Y-109792962D01*
X176207189Y-109732399D01*
X176207188Y-109732397D01*
X176207188Y-109732394D01*
X176156089Y-109595396D01*
X176068461Y-109478338D01*
X175951403Y-109390710D01*
X175814405Y-109339611D01*
X175757124Y-109333453D01*
X175757118Y-109333452D01*
X175753838Y-109333100D01*
X174254900Y-109333100D01*
X174187861Y-109313415D01*
X174142106Y-109260611D01*
X174130900Y-109209100D01*
X174130900Y-109085071D01*
X174130900Y-109081762D01*
X174124389Y-109021199D01*
X174124388Y-109021197D01*
X174124388Y-109021194D01*
X174073289Y-108884196D01*
X173985661Y-108767138D01*
X173868603Y-108679510D01*
X173731605Y-108628411D01*
X173674324Y-108622253D01*
X173674318Y-108622252D01*
X173671038Y-108621900D01*
X172073762Y-108621900D01*
X172070482Y-108622252D01*
X172070475Y-108622253D01*
X172013194Y-108628411D01*
X171876196Y-108679510D01*
X171759138Y-108767138D01*
X171671510Y-108884196D01*
X171620411Y-109021194D01*
X171615249Y-109069213D01*
X171613900Y-109081762D01*
X171613900Y-109085071D01*
X171613900Y-109123167D01*
X171594215Y-109190206D01*
X171541411Y-109235961D01*
X171472253Y-109245905D01*
X171408697Y-109216880D01*
X171388325Y-109194291D01*
X171385465Y-109190206D01*
X171300149Y-109068362D01*
X171144438Y-108912651D01*
X170964054Y-108786344D01*
X170855110Y-108735543D01*
X170764477Y-108693280D01*
X170551768Y-108636284D01*
X170332400Y-108617092D01*
X170113031Y-108636284D01*
X169900322Y-108693280D01*
X169741932Y-108767139D01*
X169700747Y-108786344D01*
X169561000Y-108884196D01*
X169520358Y-108912654D01*
X169364654Y-109068358D01*
X169364651Y-109068361D01*
X169364651Y-109068362D01*
X169259152Y-109219031D01*
X169238343Y-109248749D01*
X169174782Y-109385056D01*
X169128610Y-109437495D01*
X169061416Y-109456647D01*
X168994535Y-109436431D01*
X168950018Y-109385056D01*
X168915214Y-109310419D01*
X168886456Y-109248747D01*
X168760149Y-109068362D01*
X168604438Y-108912651D01*
X168424054Y-108786344D01*
X168315110Y-108735543D01*
X168224477Y-108693280D01*
X168011768Y-108636284D01*
X167792400Y-108617092D01*
X167573031Y-108636284D01*
X167360322Y-108693280D01*
X167201932Y-108767139D01*
X167160747Y-108786344D01*
X167021000Y-108884196D01*
X166980358Y-108912654D01*
X166824654Y-109068358D01*
X166824651Y-109068361D01*
X166824651Y-109068362D01*
X166719152Y-109219031D01*
X166698343Y-109248749D01*
X166605280Y-109448322D01*
X166548284Y-109661031D01*
X166529092Y-109880400D01*
X166539119Y-109995007D01*
X166525352Y-110063507D01*
X166476737Y-110113690D01*
X166408708Y-110129623D01*
X166342865Y-110106247D01*
X166314016Y-110076937D01*
X166306026Y-110065526D01*
X166306025Y-110065526D01*
X165624953Y-110746598D01*
X165612165Y-110665852D01*
X165554641Y-110552955D01*
X165465045Y-110463359D01*
X165352148Y-110405835D01*
X165271400Y-110393046D01*
X165952472Y-109711974D01*
X165952471Y-109711972D01*
X165879484Y-109660866D01*
X165673326Y-109564733D01*
X165453602Y-109505858D01*
X165226999Y-109486033D01*
X165000397Y-109505858D01*
X164780672Y-109564733D01*
X164574516Y-109660865D01*
X164501527Y-109711973D01*
X164501526Y-109711973D01*
X165182600Y-110393046D01*
X165101852Y-110405835D01*
X164988955Y-110463359D01*
X164899359Y-110552955D01*
X164841835Y-110665852D01*
X164829046Y-110746599D01*
X164147973Y-110065526D01*
X164147973Y-110065527D01*
X164096865Y-110138516D01*
X164000733Y-110344672D01*
X163941858Y-110564397D01*
X163922033Y-110790999D01*
X163941858Y-111017602D01*
X164000733Y-111237326D01*
X164096866Y-111443484D01*
X164147972Y-111516471D01*
X164147974Y-111516472D01*
X164829046Y-110835399D01*
X164841835Y-110916148D01*
X164899359Y-111029045D01*
X164988955Y-111118641D01*
X165101852Y-111176165D01*
X165182599Y-111188953D01*
X164501526Y-111870025D01*
X164501526Y-111870026D01*
X164574515Y-111921133D01*
X164780673Y-112017266D01*
X165000397Y-112076141D01*
X165227000Y-112095966D01*
X165453602Y-112076141D01*
X165673324Y-112017267D01*
X165726170Y-111992624D01*
X165795248Y-111982132D01*
X165859032Y-112010651D01*
X165897272Y-112069127D01*
X165897827Y-112138995D01*
X165866257Y-112192687D01*
X165583469Y-112475475D01*
X165522146Y-112508960D01*
X165463695Y-112507569D01*
X165429685Y-112498456D01*
X165201599Y-112478501D01*
X164973515Y-112498456D01*
X164752353Y-112557717D01*
X164544855Y-112654474D01*
X164544850Y-112654477D01*
X164544851Y-112654477D01*
X164385118Y-112766324D01*
X164357296Y-112785805D01*
X164195405Y-112947696D01*
X164064074Y-113135255D01*
X163967317Y-113342753D01*
X163908056Y-113563915D01*
X163888101Y-113792000D01*
X163908056Y-114020084D01*
X163908057Y-114020087D01*
X163966580Y-114238498D01*
X163967317Y-114241246D01*
X164064074Y-114448744D01*
X164064076Y-114448746D01*
X164064077Y-114448749D01*
X164195402Y-114636300D01*
X164357300Y-114798198D01*
X164544851Y-114929523D01*
X164584934Y-114948214D01*
X164587945Y-114949618D01*
X164640384Y-114995791D01*
X164659536Y-115062984D01*
X164639320Y-115129865D01*
X164587945Y-115174382D01*
X164544855Y-115194475D01*
X164544851Y-115194477D01*
X164539493Y-115198229D01*
X164357296Y-115325805D01*
X164195405Y-115487696D01*
X164064074Y-115675255D01*
X163967317Y-115882753D01*
X163908056Y-116103915D01*
X163888101Y-116332000D01*
X163908056Y-116560084D01*
X163967317Y-116781246D01*
X164064074Y-116988745D01*
X164064077Y-116988749D01*
X164075300Y-117004778D01*
X164097627Y-117070983D01*
X164080617Y-117138750D01*
X164029669Y-117186563D01*
X163973725Y-117199900D01*
X160075852Y-117199900D01*
X160008813Y-117180215D01*
X159963058Y-117127411D01*
X159953114Y-117058253D01*
X159982139Y-116994697D01*
X159995315Y-116981614D01*
X160144769Y-116853969D01*
X160298976Y-116673416D01*
X160423040Y-116470963D01*
X160513905Y-116251594D01*
X160569335Y-116020711D01*
X160587965Y-115784000D01*
X160569335Y-115547289D01*
X160513905Y-115316406D01*
X160423040Y-115097037D01*
X160298976Y-114894584D01*
X160144769Y-114714031D01*
X159964216Y-114559824D01*
X159761763Y-114435760D01*
X159620934Y-114377427D01*
X159542393Y-114344894D01*
X159311512Y-114289465D01*
X159074800Y-114270835D01*
X158838087Y-114289465D01*
X158607206Y-114344894D01*
X158387835Y-114435761D01*
X158185385Y-114559823D01*
X158004831Y-114714031D01*
X157850623Y-114894585D01*
X157726561Y-115097035D01*
X157635694Y-115316406D01*
X157580265Y-115547287D01*
X157561635Y-115784000D01*
X157580265Y-116020712D01*
X157635694Y-116251593D01*
X157681127Y-116361278D01*
X157726560Y-116470963D01*
X157850624Y-116673416D01*
X158004831Y-116853969D01*
X158154280Y-116981611D01*
X158192473Y-117040117D01*
X158192972Y-117109985D01*
X158155618Y-117169031D01*
X158092271Y-117198509D01*
X158073748Y-117199900D01*
X154907300Y-117199900D01*
X154840261Y-117180215D01*
X154794506Y-117127411D01*
X154783300Y-117075900D01*
X154783300Y-113283999D01*
X160061635Y-113283999D01*
X160080265Y-113520712D01*
X160135694Y-113751593D01*
X160181127Y-113861278D01*
X160226560Y-113970963D01*
X160350624Y-114173416D01*
X160504831Y-114353969D01*
X160685384Y-114508176D01*
X160887837Y-114632240D01*
X161107206Y-114723105D01*
X161338089Y-114778535D01*
X161574800Y-114797165D01*
X161811511Y-114778535D01*
X162042394Y-114723105D01*
X162261763Y-114632240D01*
X162464216Y-114508176D01*
X162644769Y-114353969D01*
X162798976Y-114173416D01*
X162923040Y-113970963D01*
X163013905Y-113751594D01*
X163069335Y-113520711D01*
X163087965Y-113284000D01*
X163069335Y-113047289D01*
X163013905Y-112816406D01*
X162923040Y-112597037D01*
X162798976Y-112394584D01*
X162644769Y-112214031D01*
X162464216Y-112059824D01*
X162261763Y-111935760D01*
X162152078Y-111890327D01*
X162042393Y-111844894D01*
X161811512Y-111789465D01*
X161574800Y-111770835D01*
X161338087Y-111789465D01*
X161107206Y-111844894D01*
X160887835Y-111935761D01*
X160685385Y-112059823D01*
X160504831Y-112214031D01*
X160350623Y-112394585D01*
X160226561Y-112597035D01*
X160135694Y-112816406D01*
X160080265Y-113047287D01*
X160061635Y-113283999D01*
X154783300Y-113283999D01*
X154783300Y-110784000D01*
X157561635Y-110784000D01*
X157563758Y-110810971D01*
X157580265Y-111020712D01*
X157635694Y-111251593D01*
X157640378Y-111262900D01*
X157726560Y-111470963D01*
X157850624Y-111673416D01*
X158004831Y-111853969D01*
X158185384Y-112008176D01*
X158387837Y-112132240D01*
X158607206Y-112223105D01*
X158838089Y-112278535D01*
X159074800Y-112297165D01*
X159311511Y-112278535D01*
X159542394Y-112223105D01*
X159761763Y-112132240D01*
X159964216Y-112008176D01*
X160144769Y-111853969D01*
X160298976Y-111673416D01*
X160423040Y-111470963D01*
X160513905Y-111251594D01*
X160569335Y-111020711D01*
X160587965Y-110784000D01*
X160569335Y-110547289D01*
X160513905Y-110316406D01*
X160423040Y-110097037D01*
X160298976Y-109894584D01*
X160144769Y-109714031D01*
X159964216Y-109559824D01*
X159761763Y-109435760D01*
X159639352Y-109385056D01*
X159542393Y-109344894D01*
X159311512Y-109289465D01*
X159074800Y-109270835D01*
X158838087Y-109289465D01*
X158607206Y-109344894D01*
X158387835Y-109435761D01*
X158185385Y-109559823D01*
X158004831Y-109714031D01*
X157850623Y-109894585D01*
X157726561Y-110097035D01*
X157635694Y-110316406D01*
X157580265Y-110547287D01*
X157571261Y-110661696D01*
X157561635Y-110784000D01*
X154783300Y-110784000D01*
X154783300Y-93794900D01*
X154802985Y-93727861D01*
X154855789Y-93682106D01*
X154907300Y-93670900D01*
X174589083Y-93670900D01*
X174656122Y-93690585D01*
G37*
%TD.AperFunction*%
%TA.AperFunction,Conductor*%
G36*
X169947235Y-115542748D02*
G01*
X170004759Y-115655645D01*
X170094355Y-115745241D01*
X170207252Y-115802765D01*
X170287999Y-115815553D01*
X169642826Y-116460724D01*
X169642827Y-116460725D01*
X169705010Y-116504266D01*
X169903240Y-116596702D01*
X170114513Y-116653312D01*
X170332400Y-116672375D01*
X170550286Y-116653312D01*
X170761559Y-116596702D01*
X170959785Y-116504267D01*
X171021972Y-116460724D01*
X170376801Y-115815553D01*
X170457548Y-115802765D01*
X170570445Y-115745241D01*
X170660041Y-115655645D01*
X170717565Y-115542748D01*
X170730353Y-115462001D01*
X171375524Y-116107172D01*
X171419068Y-116044984D01*
X171485328Y-115902889D01*
X171531500Y-115850449D01*
X171598693Y-115831297D01*
X171665574Y-115851512D01*
X171710092Y-115902888D01*
X171758354Y-116006386D01*
X171778344Y-116049254D01*
X171904651Y-116229638D01*
X172060362Y-116385349D01*
X172240746Y-116511656D01*
X172440324Y-116604720D01*
X172653029Y-116661715D01*
X172799276Y-116674509D01*
X172872399Y-116680907D01*
X172872399Y-116680906D01*
X172872400Y-116680907D01*
X173091771Y-116661715D01*
X173304476Y-116604720D01*
X173504054Y-116511656D01*
X173617904Y-116431936D01*
X173684109Y-116409609D01*
X173751876Y-116426619D01*
X173788294Y-116459200D01*
X173841902Y-116530812D01*
X173841940Y-116530862D01*
X173958996Y-116618489D01*
X174095994Y-116669588D01*
X174095997Y-116669588D01*
X174095999Y-116669589D01*
X174156562Y-116676100D01*
X174159872Y-116676100D01*
X175750528Y-116676100D01*
X175753838Y-116676100D01*
X175814401Y-116669589D01*
X175814403Y-116669588D01*
X175814405Y-116669588D01*
X175892324Y-116640524D01*
X175951404Y-116618489D01*
X176068461Y-116530861D01*
X176156089Y-116413804D01*
X176207189Y-116276801D01*
X176213700Y-116216238D01*
X176213700Y-116174833D01*
X176233385Y-116107794D01*
X176286189Y-116062039D01*
X176355347Y-116052095D01*
X176418903Y-116081120D01*
X176439270Y-116103704D01*
X176527451Y-116229638D01*
X176683162Y-116385349D01*
X176863546Y-116511656D01*
X177063124Y-116604720D01*
X177275829Y-116661715D01*
X177422076Y-116674509D01*
X177495199Y-116680907D01*
X177495199Y-116680906D01*
X177495200Y-116680907D01*
X177714571Y-116661715D01*
X177927276Y-116604720D01*
X178126854Y-116511656D01*
X178307238Y-116385349D01*
X178462949Y-116229638D01*
X178589256Y-116049254D01*
X178652817Y-115912944D01*
X178698990Y-115860504D01*
X178766183Y-115841352D01*
X178833065Y-115861567D01*
X178877582Y-115912944D01*
X178941141Y-116049249D01*
X178941143Y-116049251D01*
X178941144Y-116049254D01*
X179067451Y-116229638D01*
X179223162Y-116385349D01*
X179403546Y-116511656D01*
X179603124Y-116604720D01*
X179815829Y-116661715D01*
X179962076Y-116674509D01*
X180035199Y-116680907D01*
X180035199Y-116680906D01*
X180035200Y-116680907D01*
X180254571Y-116661715D01*
X180467276Y-116604720D01*
X180666854Y-116511656D01*
X180847238Y-116385349D01*
X181002949Y-116229638D01*
X181101501Y-116088890D01*
X181156076Y-116045268D01*
X181225574Y-116038074D01*
X181287929Y-116069597D01*
X181323343Y-116129827D01*
X181326602Y-116170823D01*
X181312501Y-116331999D01*
X181332456Y-116560084D01*
X181391717Y-116781246D01*
X181488474Y-116988745D01*
X181488477Y-116988749D01*
X181499700Y-117004778D01*
X181522027Y-117070983D01*
X181505017Y-117138750D01*
X181454069Y-117186563D01*
X181398125Y-117199900D01*
X166429475Y-117199900D01*
X166362436Y-117180215D01*
X166316681Y-117127411D01*
X166306737Y-117058253D01*
X166327899Y-117004778D01*
X166339123Y-116988749D01*
X166435884Y-116781243D01*
X166484988Y-116597984D01*
X166521353Y-116538325D01*
X166584200Y-116507796D01*
X166653576Y-116516091D01*
X166679073Y-116530812D01*
X166796196Y-116618489D01*
X166933194Y-116669588D01*
X166933197Y-116669588D01*
X166933199Y-116669589D01*
X166993762Y-116676100D01*
X166997072Y-116676100D01*
X168587728Y-116676100D01*
X168591038Y-116676100D01*
X168651601Y-116669589D01*
X168651603Y-116669588D01*
X168651605Y-116669588D01*
X168729524Y-116640524D01*
X168788604Y-116618489D01*
X168905661Y-116530861D01*
X168993289Y-116413804D01*
X169044389Y-116276801D01*
X169050900Y-116216238D01*
X169050899Y-116160015D01*
X169070585Y-116092976D01*
X169123389Y-116047221D01*
X169192547Y-116037277D01*
X169256103Y-116066302D01*
X169276476Y-116088893D01*
X169289274Y-116107172D01*
X169289275Y-116107172D01*
X169934446Y-115462000D01*
X169947235Y-115542748D01*
G37*
%TD.AperFunction*%
%TA.AperFunction,Conductor*%
G36*
X158265494Y-100798553D02*
G01*
X158314900Y-100847958D01*
X158329752Y-100916231D01*
X158329596Y-100918191D01*
X158325501Y-100964998D01*
X158345456Y-101193084D01*
X158404717Y-101414246D01*
X158501474Y-101621744D01*
X158501476Y-101621746D01*
X158501477Y-101621749D01*
X158632802Y-101809300D01*
X158794700Y-101971198D01*
X158982251Y-102102523D01*
X159022334Y-102121214D01*
X159025345Y-102122618D01*
X159077784Y-102168791D01*
X159096936Y-102235984D01*
X159076720Y-102302865D01*
X159025345Y-102347382D01*
X158991886Y-102362984D01*
X158982251Y-102367477D01*
X158822882Y-102479069D01*
X158794696Y-102498805D01*
X158632805Y-102660696D01*
X158501474Y-102848255D01*
X158404717Y-103055753D01*
X158345456Y-103276915D01*
X158325501Y-103505000D01*
X158345456Y-103733084D01*
X158345457Y-103733087D01*
X158396583Y-103923892D01*
X158404717Y-103954246D01*
X158501474Y-104161744D01*
X158501476Y-104161746D01*
X158501477Y-104161749D01*
X158632802Y-104349300D01*
X158794700Y-104511198D01*
X158982251Y-104642523D01*
X158982254Y-104642524D01*
X158982255Y-104642525D01*
X159086004Y-104690903D01*
X159189757Y-104739284D01*
X159410913Y-104798543D01*
X159562971Y-104811846D01*
X159638999Y-104818498D01*
X159638999Y-104818497D01*
X159639000Y-104818498D01*
X159867087Y-104798543D01*
X160088243Y-104739284D01*
X160295749Y-104642523D01*
X160483300Y-104511198D01*
X160645198Y-104349300D01*
X160776523Y-104161749D01*
X160873284Y-103954243D01*
X160889225Y-103894747D01*
X160925590Y-103835089D01*
X160988437Y-103804560D01*
X161057813Y-103812855D01*
X161111691Y-103857340D01*
X161132965Y-103923892D01*
X161133000Y-103926843D01*
X161133000Y-104349518D01*
X161133354Y-104356126D01*
X161139400Y-104412371D01*
X161189647Y-104547089D01*
X161275811Y-104662188D01*
X161390910Y-104748352D01*
X161525628Y-104798599D01*
X161581867Y-104804645D01*
X161588482Y-104805000D01*
X162183000Y-104805000D01*
X162183000Y-103820686D01*
X162194955Y-103832641D01*
X162307852Y-103890165D01*
X162401519Y-103905000D01*
X162464481Y-103905000D01*
X162558148Y-103890165D01*
X162671045Y-103832641D01*
X162683000Y-103820686D01*
X162683000Y-104805000D01*
X162994300Y-104805000D01*
X163061339Y-104824685D01*
X163107094Y-104877489D01*
X163118300Y-104929000D01*
X163118300Y-105897684D01*
X163098615Y-105964723D01*
X163081981Y-105985366D01*
X162941870Y-106125476D01*
X162880547Y-106158960D01*
X162822096Y-106157569D01*
X162788086Y-106148456D01*
X162560000Y-106128501D01*
X162331915Y-106148456D01*
X162110753Y-106207717D01*
X161903255Y-106304474D01*
X161903250Y-106304477D01*
X161903251Y-106304477D01*
X161766711Y-106400084D01*
X161715696Y-106435805D01*
X161553805Y-106597696D01*
X161553802Y-106597699D01*
X161553802Y-106597700D01*
X161498059Y-106677310D01*
X161422476Y-106785253D01*
X161402382Y-106828345D01*
X161356209Y-106880784D01*
X161289016Y-106899936D01*
X161222135Y-106879720D01*
X161177618Y-106828345D01*
X161175816Y-106824480D01*
X161157523Y-106785251D01*
X161026198Y-106597700D01*
X160864300Y-106435802D01*
X160676749Y-106304477D01*
X160676746Y-106304476D01*
X160676744Y-106304474D01*
X160469246Y-106207717D01*
X160469243Y-106207716D01*
X160290998Y-106159955D01*
X160248084Y-106148456D01*
X160020000Y-106128501D01*
X159791915Y-106148456D01*
X159570753Y-106207717D01*
X159363255Y-106304474D01*
X159363250Y-106304477D01*
X159363251Y-106304477D01*
X159226711Y-106400084D01*
X159175696Y-106435805D01*
X159031821Y-106579681D01*
X158970498Y-106613166D01*
X158944140Y-106616000D01*
X157909286Y-106616000D01*
X157842247Y-106596315D01*
X157818057Y-106575983D01*
X157692042Y-106439096D01*
X157692041Y-106439095D01*
X157692040Y-106439094D01*
X157519082Y-106304474D01*
X157514375Y-106300810D01*
X157471102Y-106277392D01*
X157421512Y-106228172D01*
X157406405Y-106159955D01*
X157430576Y-106094400D01*
X157458998Y-106066763D01*
X157639878Y-105940109D01*
X157806906Y-105773081D01*
X157942400Y-105579576D01*
X158042230Y-105365492D01*
X158099436Y-105152000D01*
X157202486Y-105152000D01*
X157228293Y-105111844D01*
X157268800Y-104973889D01*
X157268800Y-104830111D01*
X157228293Y-104692156D01*
X157202486Y-104652000D01*
X158099436Y-104652000D01*
X158099435Y-104651999D01*
X158042230Y-104438507D01*
X157942399Y-104224421D01*
X157806909Y-104030921D01*
X157639881Y-103863893D01*
X157453768Y-103733575D01*
X157410144Y-103678998D01*
X157402951Y-103609499D01*
X157434473Y-103547145D01*
X157453768Y-103530425D01*
X157639881Y-103400106D01*
X157806906Y-103233081D01*
X157942400Y-103039576D01*
X158042230Y-102825492D01*
X158099436Y-102612000D01*
X157202486Y-102612000D01*
X157228293Y-102571844D01*
X157268800Y-102433889D01*
X157268800Y-102290111D01*
X157228293Y-102152156D01*
X157202486Y-102112000D01*
X158099436Y-102112000D01*
X158099435Y-102111999D01*
X158042230Y-101898507D01*
X157942399Y-101684421D01*
X157806909Y-101490921D01*
X157691072Y-101375084D01*
X157657587Y-101313761D01*
X157662571Y-101244069D01*
X157704443Y-101188136D01*
X157735412Y-101171224D01*
X157865004Y-101122889D01*
X157982061Y-101035261D01*
X158069689Y-100918204D01*
X158089887Y-100864049D01*
X158131757Y-100808118D01*
X158197221Y-100783701D01*
X158265494Y-100798553D01*
G37*
%TD.AperFunction*%
%TA.AperFunction,Conductor*%
G36*
X157018800Y-104466498D02*
G01*
X156911115Y-104417320D01*
X156804563Y-104402000D01*
X156733037Y-104402000D01*
X156626485Y-104417320D01*
X156518800Y-104466498D01*
X156518800Y-102797501D01*
X156626485Y-102846680D01*
X156733037Y-102862000D01*
X156804563Y-102862000D01*
X156911115Y-102846680D01*
X157018800Y-102797501D01*
X157018800Y-104466498D01*
G37*
%TD.AperFunction*%
%TD*%
M02*
