M48
; DRILL file {KiCad 7.0.2-0} date 2023 July 19, Wednesday 22:29:23
; FORMAT={-:-/ absolute / inch / decimal}
; #@! TF.CreationDate,2023-07-19T22:29:23+01:00
; #@! TF.GenerationSoftware,Kicad,Pcbnew,7.0.2-0
; #@! TF.FileFunction,Plated,1,2,PTH
FMAT,2
INCH
; #@! TA.AperFunction,Plated,PTH,ViaDrill
T1C0.0120
; #@! TA.AperFunction,Plated,PTH,ComponentDrill
T2C0.0315
; #@! TA.AperFunction,Plated,PTH,ComponentDrill
T3C0.0394
; #@! TA.AperFunction,Plated,PTH,ComponentDrill
T4C0.0433
%
G90
G05
T1
X6.244Y-4.46
T2
X6.275Y-3.775
X6.275Y-3.875
X6.285Y-3.975
X6.285Y-4.075
X6.3Y-4.23
X6.385Y-3.7711
X6.385Y-3.8711
X6.395Y-3.975
X6.395Y-4.075
X6.4Y-4.23
X6.504Y-4.48
X6.504Y-4.58
X6.5049Y-3.755
X6.505Y-3.868
X6.505Y-4.0649
X6.505Y-4.165
X6.505Y-4.3619
X6.6049Y-3.755
X6.606Y-4.326
X6.606Y-4.544
X6.63Y-3.88
X6.63Y-3.98
X6.63Y-4.08
X6.63Y-4.18
X6.706Y-4.326
X6.706Y-4.544
X6.7431Y-3.755
X6.806Y-4.326
X6.806Y-4.544
X6.888Y-4.354
X6.888Y-4.544
X6.93Y-3.88
X6.93Y-3.98
X6.93Y-4.08
X6.93Y-4.18
X6.94Y-3.755
X6.988Y-4.354
X6.988Y-4.544
X7.052Y-3.79
X7.052Y-3.9869
X7.052Y-4.1
X7.052Y-4.2
X7.088Y-4.354
X7.088Y-4.544
X7.19Y-4.48
X7.19Y-4.58
T3
X6.172Y-3.93
X6.172Y-4.03
X6.172Y-4.13
X6.172Y-4.23
X7.172Y-3.93
X7.172Y-4.03
X7.172Y-4.13
X7.172Y-4.23
T4
X6.2628Y-4.3616
X6.2628Y-4.5584
X6.3612Y-4.46
T0
M30
