%TF.GenerationSoftware,KiCad,Pcbnew,7.0.2-0*%
%TF.CreationDate,2023-07-19T22:29:02+01:00*%
%TF.ProjectId,serge-gain-cell,73657267-652d-4676-9169-6e2d63656c6c,rev?*%
%TF.SameCoordinates,Original*%
%TF.FileFunction,Legend,Bot*%
%TF.FilePolarity,Positive*%
%FSLAX46Y46*%
G04 Gerber Fmt 4.6, Leading zero omitted, Abs format (unit mm)*
G04 Created by KiCad (PCBNEW 7.0.2-0) date 2023-07-19 22:29:02*
%MOMM*%
%LPD*%
G01*
G04 APERTURE LIST*
%ADD10C,0.150000*%
%ADD11C,0.120000*%
G04 APERTURE END LIST*
D10*
%TO.C,J2*%
X182502133Y-96954619D02*
X182502133Y-97668904D01*
X182502133Y-97668904D02*
X182549752Y-97811761D01*
X182549752Y-97811761D02*
X182644990Y-97907000D01*
X182644990Y-97907000D02*
X182787847Y-97954619D01*
X182787847Y-97954619D02*
X182883085Y-97954619D01*
X182073561Y-97049857D02*
X182025942Y-97002238D01*
X182025942Y-97002238D02*
X181930704Y-96954619D01*
X181930704Y-96954619D02*
X181692609Y-96954619D01*
X181692609Y-96954619D02*
X181597371Y-97002238D01*
X181597371Y-97002238D02*
X181549752Y-97049857D01*
X181549752Y-97049857D02*
X181502133Y-97145095D01*
X181502133Y-97145095D02*
X181502133Y-97240333D01*
X181502133Y-97240333D02*
X181549752Y-97383190D01*
X181549752Y-97383190D02*
X182121180Y-97954619D01*
X182121180Y-97954619D02*
X181502133Y-97954619D01*
%TO.C,J3*%
X157102133Y-96954619D02*
X157102133Y-97668904D01*
X157102133Y-97668904D02*
X157149752Y-97811761D01*
X157149752Y-97811761D02*
X157244990Y-97907000D01*
X157244990Y-97907000D02*
X157387847Y-97954619D01*
X157387847Y-97954619D02*
X157483085Y-97954619D01*
X156721180Y-96954619D02*
X156102133Y-96954619D01*
X156102133Y-96954619D02*
X156435466Y-97335571D01*
X156435466Y-97335571D02*
X156292609Y-97335571D01*
X156292609Y-97335571D02*
X156197371Y-97383190D01*
X156197371Y-97383190D02*
X156149752Y-97430809D01*
X156149752Y-97430809D02*
X156102133Y-97526047D01*
X156102133Y-97526047D02*
X156102133Y-97764142D01*
X156102133Y-97764142D02*
X156149752Y-97859380D01*
X156149752Y-97859380D02*
X156197371Y-97907000D01*
X156197371Y-97907000D02*
X156292609Y-97954619D01*
X156292609Y-97954619D02*
X156578323Y-97954619D01*
X156578323Y-97954619D02*
X156673561Y-97907000D01*
X156673561Y-97907000D02*
X156721180Y-97859380D01*
D11*
%TO.C,J2*%
X183498800Y-108772000D02*
X180838800Y-108772000D01*
X183498800Y-101092000D02*
X183498800Y-108772000D01*
X183498800Y-101092000D02*
X180838800Y-101092000D01*
X183498800Y-99822000D02*
X183498800Y-98492000D01*
X183498800Y-98492000D02*
X182168800Y-98492000D01*
X180838800Y-101092000D02*
X180838800Y-108772000D01*
%TO.C,J3*%
X155438800Y-101092000D02*
X155438800Y-108772000D01*
X158098800Y-98492000D02*
X156768800Y-98492000D01*
X158098800Y-99822000D02*
X158098800Y-98492000D01*
X158098800Y-101092000D02*
X155438800Y-101092000D01*
X158098800Y-101092000D02*
X158098800Y-108772000D01*
X158098800Y-108772000D02*
X155438800Y-108772000D01*
%TD*%
M02*
