%TF.GenerationSoftware,KiCad,Pcbnew,7.0.2-0*%
%TF.CreationDate,2023-07-19T22:29:02+01:00*%
%TF.ProjectId,serge-gain-cell,73657267-652d-4676-9169-6e2d63656c6c,rev?*%
%TF.SameCoordinates,Original*%
%TF.FileFunction,Soldermask,Top*%
%TF.FilePolarity,Negative*%
%FSLAX46Y46*%
G04 Gerber Fmt 4.6, Leading zero omitted, Abs format (unit mm)*
G04 Created by KiCad (PCBNEW 7.0.2-0) date 2023-07-19 22:29:02*
%MOMM*%
%LPD*%
G01*
G04 APERTURE LIST*
%ADD10C,1.600000*%
%ADD11O,1.600000X1.600000*%
%ADD12R,1.500000X1.500000*%
%ADD13C,1.500000*%
%ADD14C,2.000000*%
%ADD15R,1.600000X1.600000*%
%ADD16R,1.700000X1.700000*%
%ADD17O,1.700000X1.700000*%
G04 APERTURE END LIST*
D10*
%TO.C,C2*%
X179120800Y-101266000D03*
X179120800Y-96266000D03*
%TD*%
%TO.C,C4*%
X165227000Y-105791000D03*
X165227000Y-110791000D03*
%TD*%
%TO.C,R7*%
X179120800Y-104140000D03*
D11*
X179120800Y-106680000D03*
%TD*%
D10*
%TO.C,R2*%
X162179000Y-98327000D03*
D11*
X162179000Y-95787000D03*
%TD*%
D12*
%TO.C,Q1*%
X167792400Y-115417600D03*
D13*
X170332400Y-115417600D03*
X172872400Y-115417600D03*
%TD*%
D10*
%TO.C,C3*%
X176276000Y-95377000D03*
X171276000Y-95377000D03*
%TD*%
D14*
%TO.C,RV1*%
X159074800Y-110784000D03*
X161574800Y-113284000D03*
X159074800Y-115784000D03*
%TD*%
D10*
%TO.C,R4*%
X160020000Y-107442000D03*
D11*
X162560000Y-107442000D03*
%TD*%
D10*
%TO.C,R5*%
X182626000Y-113792000D03*
D11*
X182626000Y-116332000D03*
%TD*%
%TO.C,D1*%
X159385000Y-95885000D03*
D15*
X159385000Y-98425000D03*
%TD*%
D10*
%TO.C,C1*%
X165227000Y-98247200D03*
X165227000Y-103247200D03*
%TD*%
D13*
%TO.C,Q2*%
X167792400Y-109880400D03*
X170332400Y-109880400D03*
D12*
X172872400Y-109880400D03*
%TD*%
D11*
%TO.C,R3*%
X167763400Y-95377000D03*
D10*
X165223400Y-95377000D03*
%TD*%
D13*
%TO.C,Q4*%
X180035200Y-110591600D03*
X177495200Y-110591600D03*
D12*
X174955200Y-110591600D03*
%TD*%
D10*
%TO.C,R1*%
X159639000Y-103505000D03*
D11*
X159639000Y-100965000D03*
%TD*%
D10*
%TO.C,R6*%
X165201600Y-113792000D03*
D11*
X165201600Y-116332000D03*
%TD*%
%TO.C,U1*%
X176022000Y-98552000D03*
X176022000Y-101092000D03*
X176022000Y-103632000D03*
X176022000Y-106172000D03*
X168402000Y-106172000D03*
X168402000Y-103632000D03*
X168402000Y-101092000D03*
D15*
X168402000Y-98552000D03*
%TD*%
D11*
%TO.C,D2*%
X162433000Y-100965000D03*
D15*
X162433000Y-103505000D03*
%TD*%
D12*
%TO.C,Q3*%
X174955200Y-115417600D03*
D13*
X177495200Y-115417600D03*
X180035200Y-115417600D03*
%TD*%
D16*
%TO.C,J2*%
X182168800Y-99822000D03*
D17*
X182168800Y-102362000D03*
X182168800Y-104902000D03*
X182168800Y-107442000D03*
%TD*%
%TO.C,J3*%
X156768800Y-107442000D03*
X156768800Y-104902000D03*
X156768800Y-102362000D03*
D16*
X156768800Y-99822000D03*
%TD*%
M02*
